<svg width="180" height="66" viewBox="0 0 180 66" fill="none" xmlns="http://www.w3.org/2000/svg">
<path fill-rule="evenodd" clip-rule="evenodd" d="M66.9566 22.9653C66.9566 21.605 65.852 20.4785 64.4713 20.4785C63.1117 20.4785 62.0284 21.5837 62.0284 22.9653C62.0284 24.3255 63.133 25.4094 64.4713 25.4094C65.852 25.4094 66.9566 24.3255 66.9566 22.9653ZM109.696 22.2001H106.021V44.7508H109.696V22.2001ZM44.6523 29.8939L45.0135 29.4689C46.1392 28.1512 47.7961 27.4923 50.0691 27.4498V30.5954C46.5854 30.6804 44.6735 32.5508 44.6735 35.9089V44.7294H40.9986V27.6835H44.6523V29.8939ZM29.464 30.468C32.5228 30.468 34.8383 32.9334 34.8383 36.2065C34.8383 39.4798 32.5228 41.9452 29.464 41.9452C26.4476 41.9452 24.1747 39.4798 24.1747 36.2065C24.1534 32.9334 26.4476 30.468 29.464 30.468ZM20.4785 36.2065C20.4785 41.3288 24.3446 45.1759 29.4427 45.1759C32.799 45.1759 34.817 42.8167 34.817 42.8167V44.7082H38.4919V36.1853C38.4919 31.063 34.6046 27.2161 29.4427 27.2161C24.3446 27.2373 20.4785 31.1056 20.4785 36.2065ZM66.2342 27.6837H62.5593V44.7295H66.2342V27.6837ZM71.8636 36.2278C71.8636 39.501 74.1364 41.9664 77.1528 41.9664C79.1922 41.9664 80.9339 40.8825 81.8474 39.0971H85.7559C84.5876 42.8167 81.2314 45.197 77.1528 45.197C72.0335 45.197 68.1887 41.3501 68.1887 36.2278C68.1887 31.1268 72.0335 27.2586 77.1528 27.2586C81.38 27.2586 84.7576 29.7666 85.8409 33.6774H81.9961C81.1252 31.6794 79.3195 30.4892 77.1528 30.4892C74.1364 30.4892 71.8636 32.9547 71.8636 36.2278ZM145.043 34.5487L145.128 34.2937C145.85 31.9345 147.783 30.4892 150.141 30.4892C152.541 30.4892 154.496 31.9558 155.217 34.2937L155.302 34.5487H145.043ZM150.141 27.2373C145.021 27.2373 141.177 31.1056 141.177 36.2066C141.177 41.3075 145.021 45.1759 150.141 45.1759C153.901 45.1759 157.045 43.1567 158.447 39.8836H154.347C153.349 41.2225 151.862 41.9452 150.162 41.9452C147.592 41.9452 145.51 40.1386 144.979 37.4606L144.936 37.2268H155.472H159.148C159.19 36.8442 159.212 36.5254 159.212 36.2066C159.19 31.1056 155.302 27.2373 150.141 27.2373ZM129.451 22.2001H112.139V25.1332H129.451V22.2001ZM55.9531 22.2001H52.2782V39.246C52.2782 42.7742 54.2325 44.9846 57.3763 44.9846C58.5022 44.9846 59.8616 44.8358 60.3502 44.772V41.5839C59.8829 41.6477 58.7783 41.7964 57.9924 41.7964C56.8453 41.7964 55.9531 40.8188 55.9531 39.5647V30.7018H60.3502V27.6837H55.9531V22.2001ZM135.612 30.6805V39.5435C135.612 40.8188 136.525 41.7964 137.65 41.7964C138.437 41.7964 139.541 41.6477 140.008 41.5839V44.772C139.908 44.7808 139.771 44.795 139.606 44.812C138.97 44.8774 137.929 44.9846 137.035 44.9846C133.89 44.9846 131.937 42.7742 131.937 39.246V22.2001H135.612V27.6837H140.008V30.6805H135.612ZM120.763 30.468C123.821 30.468 126.137 32.9334 126.137 36.2065C126.137 39.4798 123.821 41.9452 120.763 41.9452C117.747 41.9452 115.473 39.4798 115.473 36.2065C115.473 32.9334 117.747 30.468 120.763 30.468ZM111.799 36.2065C111.799 41.3288 115.665 45.1759 120.763 45.1759C124.119 45.1759 126.137 42.8167 126.137 42.8167V44.7082H129.812V36.1853C129.812 31.063 125.924 27.2161 120.763 27.2161C115.643 27.2373 111.799 31.1056 111.799 36.2065ZM91.4701 36.1854C91.4701 39.1397 91.9586 41.924 95.3362 41.924C97.5667 41.924 99.8608 40.0537 99.8608 36.1004V27.6837H103.536V44.7083H99.8608V42.8167C99.8608 42.8167 98.204 45.1547 94.9539 45.1547C89.9831 45.1547 87.8164 41.2651 87.8164 37.0994V27.6837H91.4701V36.1854Z" fill="white"/>
</svg>
