<svg width="180" height="66" viewBox="0 0 180 66" fill="none" xmlns="http://www.w3.org/2000/svg">
<path d="M76.1001 34.6558C72.9066 34.6558 72.851 38.1445 72.0951 38.1445C71.9377 38.1445 71.8128 38.0055 71.8128 37.8142C71.8128 37.5594 71.8792 37.3387 71.8792 36.9265C71.8792 35.6747 70.9982 34.6558 69.1515 34.6558C67.5841 34.6558 66.4362 35.4416 65.7358 36.8942C65.3809 37.6305 65.4119 38.143 65.0524 38.143C64.9197 38.143 64.8163 38.0179 64.8163 37.8373C64.8163 37.3032 65.2868 36.8155 65.2868 35.6685C65.2868 35.3706 65.2637 35.1189 65.2159 34.9137H62.1797V46.6978H66.302V40.304C66.302 39.0444 66.8419 38.2372 67.7631 38.2372C68.3739 38.2372 68.917 38.7712 68.917 39.7483V46.6978H73.0392V40.304C73.0392 38.8886 73.6934 38.2372 74.5002 38.2372C75.176 38.2372 75.6543 38.8622 75.6543 39.7483V46.6978H79.7287V39.4628C79.7287 36.3014 78.4744 34.6543 76.1016 34.6543L76.1001 34.6558Z" fill="white"/>
<path d="M104.294 31.6143H100.22V46.6971H104.294V31.6143Z" fill="white"/>
<path d="M105.639 40.6654C105.639 44.6743 108.232 46.9819 111.598 46.9819C113.528 46.9819 115.003 46.2179 115.909 45.4738V41.5854C114.992 42.2121 113.582 42.9284 112.069 42.9284C110.181 42.9284 109.195 42.1442 109.195 40.7842C109.195 39.4243 110.331 38.6633 111.998 38.6633C113.506 38.6633 114.891 39.2637 115.908 39.96V35.8353C115.046 35.1947 113.527 34.6328 111.597 34.6328C107.984 34.6328 105.637 36.8928 105.637 40.6669L105.639 40.6654Z" fill="white"/>
<path d="M124.883 34.678C123.226 34.678 122.266 35.4468 121.562 36.87C121.251 37.4983 121.228 38.1189 120.878 38.1189C120.747 38.1189 120.642 37.9969 120.642 37.8132C120.642 37.1603 121.419 36.1863 121.419 33.3119C121.419 32.5896 121.349 32.0323 121.208 31.6387H117.652V46.6984H121.775V40.3556C121.775 39.1669 122.399 38.2609 123.352 38.2609C124.062 38.2609 124.554 38.8382 124.554 39.7721V46.6984H128.677V39.3213C128.677 36.2434 127.333 34.678 124.883 34.678Z" fill="white"/>
<path d="M162.711 34.6328C160.889 34.6328 159.958 35.6717 159.439 36.6319C159.026 37.3913 158.967 38.1215 158.614 38.1215C158.441 38.1215 158.354 38.0196 158.354 37.8158C158.354 37.4546 158.825 36.8418 158.825 35.8369C158.825 35.4278 158.792 35.1221 158.731 34.9184H155.646V49.7188H159.79V45.0694C160.317 46.1931 161.418 46.9372 162.923 46.9372C165.639 46.9372 167.493 44.6959 167.493 40.7858C167.493 37.1783 165.775 34.6343 162.713 34.6343L162.711 34.6328ZM161.604 44.225C160.772 44.225 159.86 43.3621 159.86 41.1841C159.86 39.2869 160.605 38.1677 161.604 38.1677C162.751 38.1677 163.392 39.2746 163.392 41.1841C163.392 43.3065 162.654 44.225 161.604 44.225Z" fill="white"/>
<path d="M87.094 34.6324C84.965 34.6324 83.0149 35.1588 81.6603 35.8333V39.2463C83.2371 38.3942 84.8539 37.7629 86.2717 37.7629C87.7898 37.7629 88.4331 38.5641 88.342 39.6184C87.7296 39.5551 87.0493 39.5288 86.2239 39.5288C82.9995 39.5288 80.9784 40.7884 80.9784 43.5299C80.9784 45.7821 82.731 46.9429 84.6487 46.9429C86.5664 46.9429 87.8068 46.0476 88.5519 44.6985C88.9762 43.9298 88.9407 43.459 89.2169 43.459C89.3526 43.459 89.4467 43.5563 89.4467 43.7075C89.4467 44.1999 89.3064 44.487 89.3064 45.1539C89.3064 45.7775 89.3881 46.3024 89.5177 46.6836H92.4814V40.3748C92.4814 36.792 90.8429 34.6309 87.094 34.6309V34.6324ZM85.7055 44.0471C84.9403 44.0471 84.5299 43.7121 84.5299 43.1286C84.5299 42.3691 85.2442 41.7871 87.094 41.7871C87.5013 41.7871 87.87 41.8011 88.2047 41.8289C88.0412 42.9141 87.0971 44.0471 85.7055 44.0471Z" fill="white"/>
<path d="M101.791 23.8087V17.1973H98.9535V23.4706C98.9535 25.025 97.9136 26.064 96.5482 26.064C95.183 26.064 94.1431 25.0235 94.1431 23.4706V17.1973H91.3105L91.326 23.8087C91.326 26.6875 93.6294 28.7931 96.556 28.7931C99.4827 28.7931 101.791 26.6923 101.791 23.8087Z" fill="white"/>
<path d="M112.747 28.5647H115.58V19.8524H118.959V17.1973H109.363V19.8524H112.747V28.5647Z" fill="white"/>
<path d="M107.532 17.2012H104.7V28.5686H107.532V17.2012Z" fill="white"/>
<path d="M83.2637 28.5647H86.0963V19.8524H89.475V17.1973H79.8789V19.8524H83.2637V28.5647Z" fill="white"/>
<path d="M65.0122 22.8864V17.2012H62.1797V28.567H65.0122V22.8864Z" fill="white"/>
<path d="M70.753 22.2912C70.753 20.7367 71.7928 19.6979 73.1581 19.6979C74.5235 19.6979 75.5633 20.7383 75.5633 22.2912V28.5646H78.3958L78.3882 21.9531C78.3866 19.0727 76.0802 16.9688 73.1535 16.9688C70.2269 16.9688 67.9189 19.0696 67.9189 21.9531V28.5646H70.7514V22.2912H70.753Z" fill="white"/>
<path d="M150.298 34.6558C147.105 34.6558 147.049 38.1445 146.294 38.1445C146.136 38.1445 146.011 38.0055 146.011 37.8142C146.011 37.5594 146.078 37.3387 146.078 36.9265C146.078 35.6747 145.196 34.6558 143.35 34.6558C141.782 34.6558 140.634 35.4416 139.934 36.8942C139.579 37.6305 139.61 38.143 139.25 38.143C139.118 38.143 139.015 38.0179 139.015 37.8373C139.015 37.3032 139.485 36.8155 139.485 35.6685C139.485 35.3706 139.462 35.1189 139.414 34.9137H136.375V46.6978H140.497V40.304C140.497 39.0444 141.037 38.2372 141.958 38.2372C142.569 38.2372 143.112 38.7712 143.112 39.7483V46.6978H147.235V40.304C147.235 38.8886 147.889 38.2372 148.696 38.2372C149.371 38.2372 149.85 38.8622 149.85 39.7483V46.6978H153.924V39.4628C153.924 36.3014 152.669 34.6543 150.297 34.6543L150.298 34.6558Z" fill="white"/>
<path d="M132.467 35.739C131.603 35.739 130.92 35.614 130.418 35.3623V46.6988H134.492V35.3623C133.964 35.5954 133.334 35.739 132.467 35.739Z" fill="white"/>
<path d="M132.444 31.5449C130.759 31.5449 129.876 32.2905 129.876 33.1472C129.876 34.0704 130.92 34.7495 132.444 34.7495C133.966 34.7495 135.011 34.0704 135.011 33.1472C135.011 32.2905 134.126 31.5449 132.444 31.5449Z" fill="white"/>
<path d="M96.369 35.739C95.5051 35.739 94.8216 35.614 94.3203 35.3623V46.6988H98.3947V35.3623C97.8656 35.5954 97.2361 35.739 96.369 35.739Z" fill="white"/>
<path d="M96.3455 31.5449C94.6607 31.5449 93.7783 32.2905 93.7783 33.1472C93.7783 34.0704 94.8228 34.7495 96.3455 34.7495C97.8682 34.7495 98.9127 34.0704 98.9127 33.1472C98.9127 32.2905 98.0287 31.5449 96.3455 31.5449Z" fill="white"/>
<path fill-rule="evenodd" clip-rule="evenodd" d="M53.6242 45.4304C54.1346 44.1345 54.4296 42.7638 54.4977 41.3726C54.4977 39.6622 53.5298 38.9532 52.9135 38.9532L52.9009 38.9083C52.8618 38.7682 52.7506 38.3704 52.6049 37.9043C52.5088 37.593 52.395 37.2874 52.2636 36.9893C52.768 36.2921 52.9815 35.426 52.8588 34.5741C52.7579 33.9173 52.4458 33.3112 51.9697 32.8478C51.0661 32.0804 49.9879 31.5468 48.8298 31.294C48.7625 31.2752 48.6354 31.2402 48.5019 31.2033L48.5003 31.2029C48.2886 31.1444 48.0607 31.0815 48.0299 31.0721C48.0285 31.0618 48.024 30.8745 48.0173 30.5975V30.5962C48.0024 29.9854 47.9769 28.9395 47.9532 28.3931C47.9382 27.5962 47.8194 26.8046 47.6 26.0383C47.3272 24.9387 46.7633 23.9329 45.9676 23.1268C47.9598 21.0634 49.2036 18.7905 49.2006 16.8406C49.1949 13.0907 44.5855 11.956 38.9054 14.3061L38.8824 14.3158C38.7162 14.3862 37.7097 14.8126 37.7019 14.8166C37.6966 14.8114 35.5261 12.6837 35.4934 12.6551C29.0174 7.01137 8.76883 29.4985 15.2427 34.9599L16.6575 36.1574C16.2758 37.181 16.1409 38.2803 16.2641 39.3659C16.4559 40.9452 17.2361 42.394 18.449 43.4228C19.6262 44.4918 21.1471 45.1037 22.7363 45.1476C25.2556 50.9481 31.0116 54.5063 37.7608 54.7066C45.0005 54.9215 51.0778 51.5273 53.6242 45.4304ZM55.1102 38.5658C55.7303 39.3667 56.0495 40.3602 56.0117 41.3726C55.9466 42.9518 55.6165 44.5089 55.0354 45.9785L55.0217 46.013C53.7079 49.1738 51.4143 51.8289 48.4786 53.5869C45.4231 55.3651 41.9418 56.2784 38.4074 56.2292C38.1786 56.2292 37.9456 56.2256 37.7159 56.2189C34.2276 56.146 30.8223 55.1403 27.8536 53.306C25.2404 51.6676 23.1257 49.3441 21.739 46.5881C20.1414 46.3398 18.65 45.6337 17.4448 44.5553C15.9467 43.2746 14.9869 41.4751 14.7575 39.5169C14.6553 38.5654 14.7105 37.6035 14.9207 36.67L14.2639 36.1143C13.7323 35.6548 13.3002 35.0914 12.9943 34.4587C12.6885 33.8259 12.5153 33.1372 12.4855 32.4349C12.4315 30.9772 12.6833 29.5244 13.2246 28.17C14.5729 24.4869 17.6745 20.1013 21.5221 16.4382C23.2391 14.771 25.1438 13.3091 27.1979 12.0817C28.9112 10.9853 30.8788 10.3512 32.9094 10.2411C34.2192 10.2068 35.4949 10.6609 36.4888 11.5151C36.5455 11.5646 37.3958 12.3967 38.0407 13.0287C38.2026 12.9605 38.319 12.9113 38.3224 12.91C40.2303 12.0785 42.2808 11.6231 44.3612 11.5691C48.216 11.5691 50.7098 13.6374 50.7147 16.8384C50.7177 18.8135 49.7486 21.0276 47.9619 23.1711C48.4479 23.9231 48.8157 24.7454 49.0521 25.6093C49.3059 26.4935 49.445 27.4068 49.4658 28.3266C49.4831 28.7224 49.5008 29.3573 49.5151 29.9177C50.8333 30.2516 52.0514 30.8988 53.0661 31.8045C53.754 32.4874 54.2051 33.3728 54.3534 34.331C54.5024 35.2768 54.3563 36.2455 53.9351 37.1053C53.9726 37.2129 54.0116 37.3298 54.0504 37.4537C54.0841 37.5617 54.1159 37.6659 54.1457 37.7647C54.5168 37.9657 54.8445 38.2379 55.1102 38.5658ZM22.3638 34.1034C22.0246 34.0863 21.6845 34.1093 21.3507 34.172C20.7938 34.2619 20.2604 34.4618 19.7815 34.76C19.3025 35.0583 18.8877 35.4489 18.5612 35.9092C18.2347 36.3694 18.0029 36.8901 17.8795 37.4408C17.7561 37.9916 17.7434 38.5614 17.8423 39.1171C18.085 41.4089 20.527 43.3414 22.7876 43.3989C23.0196 43.4048 23.2516 43.3894 23.4809 43.3529C25.9271 42.9566 26.5675 40.4344 26.1643 37.957C25.7088 35.1598 23.7163 34.1736 22.3638 34.1034ZM24.7608 40.7307C24.6576 40.8854 24.5142 41.0091 24.3461 41.0886C24.1781 41.1681 23.9915 41.2004 23.8065 41.1821C23.4813 41.1563 23.178 41.0078 22.9581 40.7667C22.7381 40.5255 22.6181 40.2098 22.6221 39.8835C22.6165 39.4485 22.7003 39.017 22.8684 38.6159C22.9733 38.361 22.9834 38.0769 22.8968 37.8153C22.8102 37.5536 22.6326 37.3317 22.3964 37.19C22.1061 37.0099 21.7578 36.9481 21.4233 37.0175C21.0995 37.0798 20.8133 37.2675 20.627 37.5399C20.5013 37.7432 20.4032 37.9623 20.3352 38.1916C20.322 38.2317 20.3115 38.2631 20.3035 38.2837C20.1927 38.5665 20.0158 38.6491 19.8962 38.6338C19.8522 38.6257 19.8114 38.6051 19.7786 38.5745C19.746 38.5439 19.7228 38.5045 19.7119 38.461C19.6498 38.0835 19.6789 37.6966 19.7967 37.3325C19.9144 36.9685 20.1174 36.6379 20.3888 36.3683C20.6252 36.1323 20.9122 35.9534 21.2281 35.8453C21.5441 35.737 21.8804 35.7024 22.2117 35.744C22.5596 35.7859 22.8921 35.9118 23.1805 36.111C23.4689 36.3101 23.7044 36.5765 23.8669 36.8872C24.0231 37.261 24.0864 37.6672 24.0511 38.0709C24.0159 38.4747 23.8831 38.8637 23.6643 39.2048C23.6367 39.2636 23.6112 39.318 23.5897 39.3661C23.511 39.4997 23.4676 39.6511 23.4635 39.8061C23.4594 39.9612 23.4948 40.1147 23.5663 40.2523C23.6292 40.3361 23.7115 40.4037 23.8059 40.4492C23.9004 40.4946 24.0044 40.5167 24.1092 40.5137C24.2093 40.5123 24.3088 40.499 24.4057 40.474C24.5313 40.4463 24.6612 40.4176 24.7404 40.5118C24.7666 40.5413 24.7827 40.5786 24.7864 40.6179C24.79 40.6573 24.7811 40.6967 24.7608 40.7307ZM42.2383 21.1916C42.3118 21.2329 42.2596 21.3748 42.1775 21.356C39.8348 20.8285 37.4034 20.8349 35.0636 21.375C32.9907 21.8419 31.0287 22.7085 29.287 23.9261C29.2725 23.9365 29.2547 23.9413 29.237 23.9394C29.2192 23.9375 29.2027 23.9293 29.1907 23.9159C29.1786 23.9027 29.1719 23.8855 29.1717 23.8677C29.1715 23.8498 29.1779 23.8325 29.1897 23.819C30.6926 22.0489 32.5059 20.5683 34.5406 19.4502C34.5538 19.4433 34.5689 19.4409 34.5836 19.4432C34.5982 19.4456 34.6119 19.4525 34.6223 19.4632C34.6328 19.4738 34.6394 19.4875 34.6415 19.5023C34.6435 19.5171 34.6407 19.5321 34.6337 19.5452C34.4171 19.9264 34.2501 20.3337 34.1366 20.7572C34.1335 20.7713 34.1346 20.7861 34.1399 20.7996C34.1453 20.8131 34.1545 20.8247 34.1665 20.8329C34.1784 20.8409 34.1926 20.8454 34.2071 20.8455C34.2216 20.8455 34.2358 20.8412 34.2478 20.8331C35.6568 19.9094 37.2684 19.3409 38.9447 19.1762C38.9604 19.1753 38.9761 19.1795 38.9893 19.1881C39.0025 19.1966 39.0125 19.2091 39.018 19.2239C39.0236 19.2386 39.0243 19.2548 39.02 19.27C39.0157 19.2851 39.0067 19.2985 38.9943 19.3082C38.7165 19.5216 38.4681 19.7708 38.2553 20.0492C38.2474 20.0597 38.2426 20.0722 38.2414 20.0853C38.2402 20.0984 38.2426 20.1116 38.2484 20.1235C38.2542 20.1353 38.2632 20.1453 38.2743 20.1523C38.2854 20.1593 38.2982 20.1632 38.3114 20.1634C39.6805 20.2097 41.0221 20.561 42.2383 21.1916ZM36.185 15.6118C36.185 15.6118 34.4224 13.57 33.8904 13.4194C30.6169 12.5356 23.5457 17.408 19.0308 23.8454C17.2039 26.45 14.5888 31.0625 15.8393 33.4348C16.2837 33.9674 16.7847 34.4501 17.3335 34.8743C18.1714 33.6993 19.4325 32.8955 20.8509 32.6324C22.631 27.6527 25.7559 23.2641 29.8784 19.9542C31.8567 18.3343 33.9662 16.8818 36.185 15.6118ZM37.5822 43.5004C37.3151 43.2202 37.1285 42.8728 37.0424 42.4953C41.1936 43.7838 43.8076 42.5658 43.8076 42.5658C43.8316 42.5547 43.8517 42.5366 43.865 42.5137C43.8783 42.4908 43.8843 42.4643 43.8819 42.438C43.8804 42.4222 43.8757 42.4071 43.8683 42.3932C43.8608 42.3792 43.8507 42.3669 43.8385 42.3569C43.8263 42.347 43.8123 42.3395 43.7971 42.335C43.7821 42.3304 43.7662 42.3288 43.7505 42.3305C41.5219 42.5979 39.2616 42.3672 37.1329 41.6549C37.4144 40.7369 38.0711 40.8232 39.0489 40.9516C39.2874 40.9829 39.5454 41.0168 39.8214 41.0392C42.009 41.1692 44.2028 40.9311 46.3116 40.3349C48.0293 39.8424 49.6438 39.0439 51.0776 37.9778C51.3929 38.7191 51.617 39.4958 51.7453 40.2911C51.9903 40.2547 52.2406 40.3009 52.4564 40.4224C52.7622 40.6129 52.9868 41.009 52.8334 42.0324C52.5605 43.7699 51.7823 45.3858 50.5994 46.6802C50.5548 46.7272 50.5095 46.7737 50.4638 46.8198C49.6198 47.7363 48.6149 48.49 47.499 49.0435C46.8779 49.371 46.2301 49.6454 45.563 49.864C40.467 51.5344 35.2509 49.6981 33.5694 45.7546C33.433 45.4534 33.3203 45.142 33.2324 44.8232C32.8617 43.4957 32.8317 42.096 33.1451 40.7538C33.4586 39.4115 34.1053 38.1702 35.0255 37.1444V37.1433C35.1601 37.0269 35.2448 36.8631 35.2624 36.686C35.2459 36.5263 35.1821 36.3751 35.0793 36.2518C34.9473 36.0598 34.7509 35.8409 34.5243 35.5884C33.6087 34.5682 32.2014 32.9998 32.5721 30.4397C32.6986 29.4064 33.1918 28.453 33.9618 27.7529C34.7318 27.0528 35.7275 26.6527 36.7675 26.6254C36.891 26.6318 37.0147 26.6391 37.138 26.6465L37.2399 26.6525C37.6256 26.6756 37.9879 26.7112 38.3335 26.7453C38.7117 26.7826 39.07 26.8179 39.4174 26.8324C40.0137 26.8856 40.6145 26.8148 41.1823 26.6246C41.7499 26.4344 42.2723 26.1289 42.7164 25.7272C43.0592 25.3711 43.4979 25.1222 43.9794 25.0107C44.1365 24.9694 44.2994 24.9534 44.4617 24.9633C44.6773 24.9716 44.888 25.0237 45.0815 25.1156C45.1159 25.1348 45.1497 25.1555 45.1828 25.1774C46.132 25.8164 46.2669 27.3643 46.316 28.4966C46.3439 29.1428 46.4213 30.7067 46.4477 31.1556C46.5081 32.182 46.7747 32.3267 47.3144 32.5065C47.5578 32.5875 47.7873 32.6521 48.0828 32.7354L48.0844 32.7358C48.1568 32.7561 48.2332 32.7776 48.3147 32.8008C49.2236 32.9855 50.0728 33.3923 50.7863 33.985C51.0296 34.2263 51.1877 34.5401 51.2368 34.8792C51.2584 35.2157 51.2055 35.5527 51.0817 35.8664C50.9579 36.1799 50.7664 36.4623 50.5208 36.6932L50.5415 36.7408C49.9801 37.3295 49.1091 37.9306 47.8773 38.5045C45.1356 39.7104 42.1307 40.193 39.1496 39.9061C38.9658 39.8856 38.3119 39.8113 38.3096 39.811C36.3918 39.5517 35.2979 42.0391 36.4489 43.7432C37.1907 44.8414 39.2111 45.5562 41.2326 45.5565C45.8677 45.5572 49.4302 43.5706 50.7554 41.8551C50.7935 41.8065 50.8288 41.7558 50.8615 41.7033C50.9267 41.6048 50.8729 41.5504 50.7917 41.6062C49.7089 42.3497 44.8998 45.3016 39.7557 44.4135C39.3481 44.3413 38.9479 44.2322 38.56 44.0876C38.1872 43.9836 37.8494 43.7808 37.5822 43.5004ZM43.4071 34.9127C43.2427 34.94 43.074 34.9058 42.9333 34.8167C42.5709 34.6475 42.3824 34.3067 42.5122 34.0556C42.6166 33.9255 42.7651 33.8386 42.9296 33.8112C43.0939 33.7837 43.2626 33.8179 43.4034 33.9071C43.7658 34.0764 43.9542 34.4171 43.8245 34.6684C43.72 34.7984 43.5715 34.8854 43.4071 34.9127ZM44.5933 31.9914C44.319 31.6214 44.1315 31.1944 44.0446 30.7419C43.8399 29.8105 43.861 29.1355 44.4336 29.0477C45.0064 28.96 45.2835 29.5239 45.4883 30.4553C45.6267 30.9602 45.6123 31.4948 45.4466 31.9914C45.1632 31.9566 44.8766 31.9566 44.5933 31.9914ZM44.8232 32.8956C44.9647 32.8451 45.1185 32.8403 45.2629 32.8818C45.4237 32.9091 45.5676 32.9976 45.6646 33.1286C45.7617 33.2598 45.8043 33.4233 45.7835 33.5851C45.781 33.7355 45.7315 33.8812 45.642 34.0019C45.5524 34.1227 45.4273 34.2123 45.2842 34.2582C45.1412 34.3042 44.9873 34.3041 44.8443 34.258C44.7012 34.2119 44.5762 34.1221 44.4868 34.0013C44.3974 33.8805 44.3481 33.7347 44.3457 33.5844C44.3434 33.4341 44.3882 33.2868 44.4738 33.1633C44.5594 33.0397 44.6817 32.9461 44.8232 32.8956ZM35.7549 32.7985C35.6635 32.7856 35.6246 32.7465 35.6131 32.6947C35.5776 32.5341 35.8247 32.2696 36.0851 32.0786C36.465 31.8006 36.9101 31.6251 37.3775 31.569C37.845 31.5129 38.3189 31.578 38.7539 31.7581C39.1603 31.9259 39.5098 32.2073 39.7605 32.5687C39.8535 32.7206 39.8716 32.8385 39.8114 32.9002C39.7227 32.9938 39.5043 32.8976 39.152 32.7426L39.0892 32.715C38.6215 32.4854 38.1047 32.374 37.5841 32.3906C36.9673 32.4922 36.3565 32.6284 35.7549 32.7985ZM39.6349 33.5978C39.4667 33.4209 39.2573 33.2885 39.0254 33.2124C38.7935 33.1363 38.5463 33.119 38.3061 33.1619C37.9518 33.1997 37.6162 33.3397 37.34 33.5648C37.2114 33.6573 37.1229 33.7955 37.0928 33.9511C37.0921 33.9684 37.0952 33.9857 37.1019 34.0016C37.1087 34.0176 37.1187 34.0319 37.1316 34.0435C37.1544 34.0643 37.1842 34.0757 37.215 34.0752C37.3425 34.0566 37.4671 34.022 37.586 33.9723C38.1065 33.7762 38.6688 33.7177 39.2184 33.8028L39.2372 33.8048C39.4791 33.8321 39.5949 33.8452 39.6494 33.7599C39.6637 33.7346 39.67 33.7055 39.6674 33.6765C39.6648 33.6477 39.6536 33.6201 39.6349 33.5978Z" fill="white"/>
</svg>
