<svg width="180" height="66" viewBox="0 0 180 66" fill="none" xmlns="http://www.w3.org/2000/svg">
<path d="M163.192 31.0295V28.4621H160.006V24.4708L159.898 24.5039L156.906 25.4201L156.846 25.438V28.4622H152.123V26.7775C152.123 25.993 152.298 25.3927 152.644 24.9923C152.987 24.5968 153.478 24.3957 154.103 24.3957C154.554 24.3957 155.02 24.5018 155.488 24.7109L155.606 24.7635V22.0596L155.551 22.0393C155.113 21.882 154.518 21.8027 153.781 21.8027C152.851 21.8027 152.007 22.0052 151.27 22.4062C150.534 22.8078 149.954 23.3812 149.548 24.1101C149.143 24.8383 148.938 25.6792 148.938 26.6099V28.4621H146.719V31.0295H148.938V41.8453H152.123V31.0295H156.846V37.9027C156.846 40.7335 158.181 42.168 160.813 42.168C161.246 42.168 161.701 42.1173 162.165 42.018C162.638 41.916 162.961 41.8143 163.15 41.7055L163.192 41.6806V39.0895L163.062 39.1752C162.89 39.2905 162.674 39.3847 162.422 39.4548C162.168 39.526 161.958 39.5618 161.793 39.5618C161.176 39.5618 160.721 39.3956 160.437 39.0675C160.151 38.7365 160.006 38.1577 160.006 37.3479V31.0295H163.192ZM139.606 39.5622C138.45 39.5622 137.538 39.1786 136.896 38.4232C136.25 37.6639 135.923 36.5812 135.923 35.2058C135.923 33.7866 136.25 32.6759 136.896 31.9032C137.539 31.1355 138.442 30.7459 139.58 30.7459C140.685 30.7459 141.563 31.118 142.193 31.8525C142.827 32.5908 143.147 33.6925 143.147 35.1283C143.147 36.5815 142.845 37.6979 142.25 38.4446C141.659 39.1857 140.769 39.5622 139.606 39.5622ZM139.748 28.1397C137.542 28.1397 135.791 28.7863 134.541 30.0617C133.293 31.3371 132.66 33.1023 132.66 35.3084C132.66 37.4038 133.278 39.0892 134.496 40.3172C135.715 41.5455 137.374 42.1677 139.425 42.1677C141.563 42.1677 143.28 41.512 144.529 40.219C145.777 38.9275 146.409 37.179 146.409 35.0244C146.409 32.8962 145.816 31.1982 144.645 29.9785C143.473 28.7582 141.825 28.1397 139.748 28.1397ZM127.525 28.1397C126.025 28.1397 124.784 28.5237 123.835 29.2807C122.881 30.0423 122.398 31.0412 122.398 32.2499C122.398 32.8781 122.502 33.4363 122.707 33.9096C122.914 34.3846 123.234 34.8028 123.659 35.1537C124.081 35.5018 124.732 35.8664 125.596 36.2374C126.32 36.536 126.862 36.7886 127.205 36.9878C127.542 37.1829 127.78 37.3791 127.915 37.5702C128.046 37.7571 128.111 38.013 128.111 38.3288C128.111 39.228 127.439 39.6655 126.054 39.6655C125.54 39.6655 124.955 39.5581 124.313 39.3465C123.676 39.1383 123.074 38.8332 122.53 38.4419L122.397 38.347V41.4154L122.446 41.4379C122.897 41.646 123.465 41.8216 124.134 41.9597C124.803 42.098 125.41 42.1683 125.938 42.1683C127.566 42.1683 128.877 41.7825 129.833 41.0208C130.796 40.254 131.284 39.2317 131.284 37.9812C131.284 37.079 131.021 36.3054 130.504 35.6815C129.99 35.0627 129.097 34.4946 127.852 33.9924C126.861 33.5941 126.225 33.2635 125.963 33.0098C125.711 32.7647 125.582 32.418 125.582 31.9789C125.582 31.5896 125.741 31.2779 126.066 31.0254C126.393 30.7716 126.85 30.6425 127.421 30.6425C127.953 30.6425 128.495 30.7264 129.035 30.8908C129.574 31.0552 130.049 31.2753 130.445 31.5446L130.575 31.6336V28.7231L130.525 28.7016C130.159 28.545 129.678 28.411 129.093 28.3023C128.512 28.1942 127.984 28.1397 127.525 28.1397ZM114.094 39.5622C112.938 39.5622 112.027 39.1786 111.385 38.4232C110.738 37.6639 110.411 36.5815 110.411 35.2058C110.411 33.7866 110.739 32.6759 111.385 31.9032C112.028 31.1355 112.93 30.7459 114.068 30.7459C115.172 30.7459 116.052 31.118 116.681 31.8525C117.315 32.5908 117.636 33.6925 117.636 35.1283C117.636 36.5815 117.334 37.6979 116.738 38.4446C116.147 39.1857 115.257 39.5622 114.094 39.5622ZM114.236 28.1397C112.03 28.1397 110.278 28.7863 109.03 30.0617C107.782 31.3371 107.148 33.1023 107.148 35.3084C107.148 37.4047 107.766 39.0892 108.985 40.3172C110.203 41.5455 111.862 42.1677 113.914 42.1677C116.052 42.1677 117.769 41.512 119.017 40.219C120.265 38.9275 120.898 37.179 120.898 35.0244C120.898 32.8962 120.304 31.1982 119.133 29.9785C117.961 28.7582 116.314 28.1397 114.236 28.1397ZM102.313 30.7798V28.4621H99.167V41.8451H102.313V34.9991C102.313 33.8351 102.577 32.8787 103.097 32.1564C103.611 31.4427 104.296 31.081 105.133 31.081C105.415 31.081 105.734 31.1278 106.079 31.2202C106.42 31.3122 106.667 31.412 106.812 31.5171L106.944 31.613V28.4392L106.893 28.4174C106.6 28.2928 106.185 28.2299 105.661 28.2299C104.871 28.2299 104.163 28.4841 103.557 28.9846C103.026 29.4245 102.641 30.0277 102.347 30.7798H102.313ZM93.5325 28.1397C92.089 28.1397 90.8016 28.4494 89.7065 29.0599C88.6091 29.6718 87.7605 30.5454 87.183 31.6562C86.6082 32.7644 86.3162 34.0588 86.3162 35.5023C86.3162 36.7668 86.5992 37.9272 87.1586 38.9499C87.7182 39.9743 88.5103 40.7757 89.513 41.3316C90.5142 41.8867 91.6714 42.1681 92.9527 42.1681C94.4479 42.1681 95.7245 41.869 96.7481 41.2792L96.7895 41.2554V38.3713L96.6572 38.4679C96.1936 38.8058 95.6755 39.0756 95.1179 39.2699C94.5619 39.4641 94.0548 39.5622 93.6102 39.5622C92.3757 39.5622 91.3846 39.1757 90.6652 38.4137C89.9442 37.6507 89.5787 36.5792 89.5787 35.2311C89.5787 33.8743 89.9599 32.7753 90.7113 31.9645C91.4602 31.156 92.4532 30.7459 93.6622 30.7459C94.6963 30.7459 95.704 31.0962 96.6575 31.7883L96.7895 31.8841V28.8453L96.7468 28.8212C96.388 28.6203 95.8987 28.4543 95.2912 28.3285C94.6863 28.203 94.0947 28.1397 93.5325 28.1397ZM84.1493 28.4622H81.0031V41.8451H84.1493V28.4622ZM82.6084 22.7611C82.0906 22.7611 81.6389 22.9374 81.2679 23.287C80.8953 23.6375 80.7063 24.0788 80.7063 24.5996C80.7063 25.1122 80.8929 25.5455 81.262 25.8867C81.6287 26.2268 82.0818 26.3994 82.6085 26.3994C83.1351 26.3994 83.5899 26.2268 83.9609 25.8872C84.3344 25.5455 84.5238 25.1124 84.5238 24.5996C84.5238 24.097 84.3395 23.6602 83.9763 23.3011C83.6134 22.9426 83.1531 22.7611 82.6084 22.7611ZM74.7582 27.4749V41.8451H77.9692V23.1708H73.525L67.8763 37.0414L62.3946 23.1708H57.7695V41.8449H60.787V27.4734H60.8906L66.6791 41.8451H68.9563L74.6546 27.4749H74.7582Z" fill="white"/>
<path d="M32.0901 31.7392H17.2891V16.9297H32.0901V31.7392Z" fill="white"/>
<path d="M48.4327 31.7392H33.6318V16.9297H48.4327V31.7392Z" fill="white"/>
<path d="M32.0897 48.0964H17.2891V33.2871H32.0897V48.0964Z" fill="white"/>
<path d="M48.4327 48.0964H33.6318V33.2871H48.4327V48.0964Z" fill="white"/>
</svg>
