<svg width="180" height="66" viewBox="0 0 180 66" fill="none" xmlns="http://www.w3.org/2000/svg">
<path d="M60.4252 20.415H53.317C53.2848 20.4243 53.257 20.443 53.2386 20.4683L46.5823 31.0789L46.3757 30.6921C46.357 30.6567 44.4922 27.1774 42.6522 24.3587C40.7962 21.4858 39.2301 19.4541 35.9623 19.4541C33.4179 19.4541 30.9307 20.8584 30.5559 21.7751C30.5112 21.8737 30.5086 21.8803 30.8286 22.0411C31.451 22.3547 32.61 22.9389 32.7394 25.5813C32.7394 25.6145 32.5091 41.5921 32.4792 43.7057H40.2497V30.2942L45.8939 39.516C45.9524 39.516 46.0644 39.516 46.1901 39.516H47.2346C47.3233 39.521 47.4124 39.5162 47.4998 39.5017C47.6927 39.1691 51.6887 32.3779 52.9896 30.2078V43.7025H60.536L60.4252 20.415ZM72.5614 51.1952C67.1598 51.1952 64.7971 47.9609 64.3963 46.827C63.9643 45.651 64.1062 45.344 64.161 45.2753C64.1803 45.2513 64.2129 45.2388 64.2456 45.2431C64.2638 45.2416 64.2823 45.2416 64.3004 45.2431C64.4922 45.2719 64.771 45.5191 65.0934 45.805C65.9798 46.592 67.4586 47.911 70.5073 47.911C73.8336 47.911 75.4656 45.8361 75.5739 43.9097V39.5959L75.0996 40.4826C73.246 43.9441 70.1725 44.2134 69.2749 44.2134C67.96 44.2078 66.7143 43.6882 65.8677 42.7924C64.9266 41.8282 64.4075 40.4649 64.4075 38.9486V33.9608C64.4075 32.3148 64.1436 31.1211 63.6008 30.3119C63.2741 29.8152 62.7753 29.4263 62.1791 29.2035C62.0695 29.1661 61.9677 29.1125 61.8779 29.045C61.8765 29.0211 61.8816 28.9971 61.8929 28.9752C62.2439 28.0752 64.0814 26.7695 66.1751 26.7695C69.2612 26.7695 71.416 28.7569 71.416 31.6021V37.8535C71.416 39.454 72.1904 40.0237 72.9161 40.0237C74.1224 40.0237 75.4532 38.5351 75.4992 36.1288V27.4345H82.5078C82.5177 28.2747 82.6198 37.3558 82.6198 41.5455C82.7356 44.5382 81.8169 47.0165 79.9608 48.7268C78.2055 50.3395 75.6473 51.1952 72.5614 51.1952ZM124.698 44.5781C123.453 44.5426 122.377 44.2954 121.496 43.8421C119.939 42.9975 119.08 41.4823 119.08 39.5792V30.0792H117.026V27.3968H119.08V24.6991L126.09 22.1309C126.098 22.6186 126.127 24.7201 126.127 27.1752V27.3968H130.795V30.0803H126.127V37.7515C126.13 38.1141 126.155 38.4763 126.203 38.8366V38.851C126.576 40.9237 127.999 41.1897 129.19 41.1897C129.475 41.1897 129.755 41.1742 130.024 41.1587C130.265 41.1453 130.494 41.1332 130.701 41.1332C130.803 41.1332 130.986 41.1465 131.048 41.2374C131.108 41.3282 131.073 41.4934 130.967 41.6707C130.026 43.3556 127.389 44.577 124.698 44.5781ZM140.757 44.3785C136.761 44.3681 133.16 42.2275 131.618 38.9451C130.075 35.6626 130.891 31.8768 133.687 29.3354C135.597 27.6351 138.281 26.6985 141.243 26.6985C147.124 26.6985 149.77 29.9528 149.77 32.2628C149.77 34.0628 148.925 35.4205 147.258 36.2961C145.504 37.2195 143.221 37.4134 141.615 37.4134C140.516 37.4103 139.418 37.3273 138.334 37.1651L137.918 37.1031L138.057 37.4566C138.804 39.3586 140.766 40.4493 143.439 40.4493C145.265 40.4493 147.327 39.9251 149.244 38.9741L149.259 38.9674L149.272 38.9574C149.31 38.9295 149.356 38.9124 149.405 38.9086C149.425 38.9079 149.443 38.9139 149.458 38.9253C149.513 38.9607 149.563 38.9951 149.484 39.209V39.2234C149.141 40.3595 146.233 44.3785 140.753 44.3785H140.757ZM140.733 30.0581C140.403 30.1124 140.088 30.2214 139.804 30.3796C138.26 31.2119 137.852 33.2813 137.745 34.4396L137.725 34.6613L137.973 34.6812C138.308 34.7078 138.635 34.7212 138.942 34.7212C140.312 34.7212 141.375 34.4607 142.114 33.9452C142.833 33.4465 143.213 32.7149 143.213 31.8316C143.213 31.3415 142.992 30.8721 142.598 30.5292C142.205 30.1863 141.674 29.9989 141.123 30.0093C141.073 30.0093 141.02 30.0093 140.967 30.0093L140.735 30.0227L140.733 30.0581ZM98.2577 44.3121C95.4033 44.3121 93.7763 42.6561 92.9111 41.2673L92.4405 40.5136V43.6781H85.3984V20.2477H92.4443V30.8883L92.9135 30.1035C94.2394 27.8868 96.2038 26.6675 98.4445 26.6675C103.013 26.6675 105.479 31.2308 105.479 35.5236C105.479 37.8457 104.818 40.0093 103.62 41.6197C102.702 42.8412 101.023 44.3121 98.254 44.3121H98.2577ZM95.2701 30.8108C93.4177 30.8108 92.2201 32.6606 92.2201 35.5213C92.2201 38.4032 93.4177 40.2664 95.2701 40.2664C97.1224 40.2664 98.32 38.4044 98.32 35.5213C98.3163 32.6606 97.1199 30.8108 95.2664 30.8108H95.2701ZM108.107 43.6802C108.135 42.9853 108.403 36.0268 108.403 33.8588C108.403 30.0769 107.116 29.4484 106.424 29.1116C106.149 28.9775 106.149 28.9775 106.187 28.8755C106.534 27.9755 108.376 26.6653 110.47 26.6653C111.905 26.6653 113.132 27.1087 114.018 27.9511C114.93 28.8167 115.412 30.0426 115.412 31.4979V43.6802H108.107ZM111.026 25.3286C108.775 25.3286 106.943 24.0406 106.943 22.4578C106.943 20.8751 108.775 19.5871 111.026 19.5871C113.278 19.5871 115.151 20.895 115.151 22.4534C115.151 24.0362 113.298 25.3286 111.026 25.3286Z" fill="white"/>
</svg>
