<svg width="180" height="66" viewBox="0 0 180 66" fill="none" xmlns="http://www.w3.org/2000/svg">
<path d="M54.5907 38.4855C54.9323 39.3927 55.4053 40.1683 56.0097 40.8124C56.6142 41.4566 57.3303 41.9496 58.1579 42.2914C58.9857 42.6332 59.8857 42.8041 60.858 42.8041C61.8041 42.8041 62.6909 42.6266 63.5188 42.2716C64.3465 41.9166 65.0692 41.4171 65.6866 40.7729C66.3041 40.1288 66.7837 39.3597 67.1254 38.4657C67.467 37.5718 67.6377 36.5727 67.6377 35.4684V18.4307H71.7766V46.038H67.6773V43.4745C66.7575 44.4473 65.6735 45.1966 64.4252 45.7226C63.177 46.2484 61.8303 46.5113 60.3851 46.5113C58.9134 46.5113 57.5404 46.2549 56.2659 45.7422C54.9915 45.2296 53.8877 44.4999 52.9549 43.5533C52.0221 42.6068 51.2863 41.4698 50.7476 40.1419C50.2088 38.8142 49.9395 37.3352 49.9395 35.705V18.4307H54.0782V35.4684C54.0782 36.5727 54.249 37.5783 54.5907 38.4855Z" fill="white"/>
<path d="M78.9106 18.4307V28.4876C79.8304 27.5674 80.8947 26.8379 82.1035 26.2988C83.3122 25.7597 84.6262 25.4903 86.0451 25.4903C87.5168 25.4903 88.8963 25.7662 90.1839 26.3184C91.4715 26.8705 92.5883 27.6199 93.5344 28.5665C94.4803 29.5131 95.2293 30.6305 95.7811 31.9188C96.333 33.2073 96.6088 34.5744 96.6088 36.0206C96.6088 37.4665 96.333 38.8273 95.7811 40.1024C95.2293 41.3776 94.4803 42.4886 93.5344 43.435C92.5883 44.3816 91.4715 45.131 90.1839 45.6831C88.8963 46.2351 87.5167 46.5112 86.0451 46.5112C84.6261 46.5112 83.3057 46.2417 82.0838 45.7027C80.8619 45.1637 79.791 44.4341 78.8712 43.5138V46.0379H74.9296V18.4307H78.9106ZM79.3639 38.7418C79.7187 39.5832 80.2115 40.3194 80.8421 40.9505C81.4728 41.5815 82.2086 42.0811 83.0494 42.4491C83.8904 42.8172 84.797 43.0013 85.7693 43.0013C86.7153 43.0013 87.6087 42.8172 88.4495 42.4491C89.2905 42.0811 90.0196 41.5816 90.6373 40.9505C91.2547 40.3195 91.7474 39.5832 92.1153 38.7418C92.4832 37.9004 92.6672 36.9934 92.6672 36.0206C92.6672 35.0476 92.4832 34.134 92.1153 33.2795C91.7474 32.4249 91.2547 31.6823 90.6373 31.0512C90.0197 30.4202 89.2906 29.9272 88.4495 29.5723C87.6086 29.2173 86.7152 29.0398 85.7693 29.0398C84.8233 29.0398 83.9298 29.2173 83.089 29.5723C82.248 29.9273 81.5123 30.4202 80.8815 31.0512C80.2509 31.6823 79.7516 32.4249 79.3838 33.2795C79.0159 34.134 78.8319 35.0476 78.8319 36.0206C78.8318 36.9934 79.0092 37.9004 79.3639 38.7418Z" fill="white"/>
<path d="M98.8556 31.9578C99.3811 30.6957 100.104 29.5849 101.024 28.6253C101.943 27.6656 103.034 26.9096 104.295 26.3575C105.556 25.8053 106.923 25.5293 108.395 25.5293C109.839 25.5293 111.18 25.7922 112.415 26.318C113.65 26.8439 114.714 27.5736 115.608 28.507C116.501 29.4403 117.197 30.5447 117.697 31.8199C118.197 33.095 118.445 34.482 118.445 35.9807V37.2822H102.088C102.219 38.0973 102.482 38.8533 102.876 39.5499C103.27 40.2466 103.763 40.8514 104.354 41.3641C104.945 41.8769 105.616 42.2778 106.364 42.567C107.114 42.8561 107.908 43.0009 108.749 43.0009C111.141 43.0009 113.072 42.0148 114.543 40.0429L117.421 42.1726C116.422 43.5135 115.187 44.5653 113.716 45.3277C112.245 46.0902 110.589 46.4715 108.749 46.4715C107.251 46.4715 105.852 46.2084 104.551 45.6826C103.251 45.1569 102.121 44.4206 101.162 43.474C100.202 42.5274 99.447 41.4165 98.8951 40.1414C98.3433 38.8663 98.0674 37.4792 98.0674 35.9806C98.0672 34.5609 98.3301 33.2199 98.8556 31.9578ZM104.393 30.3999C103.277 31.3333 102.534 32.5756 102.167 34.1269H114.426C114.084 32.5756 113.355 31.3333 112.237 30.3999C111.12 29.4666 109.814 28.9998 108.316 28.9998C106.818 28.9998 105.51 29.4666 104.393 30.3999Z" fill="white"/>
<path d="M125.895 30.8533C125.054 31.7736 124.633 33.0225 124.633 34.6001V46.0375H120.653V25.9235H124.595V28.4082C125.093 27.5931 125.744 26.949 126.545 26.4757C127.347 26.0024 128.299 25.7656 129.403 25.7656H130.783V29.473H129.127C127.814 29.4731 126.736 29.9331 125.895 30.8533Z" fill="white"/>
</svg>
