<svg xmlns="http://www.w3.org/2000/svg" width="29" height="29" viewBox="0 0 29 29" fill="none">
<path d="M25.149 9.14379L11.1324 23.1604C11.051 23.2419 10.9544 23.3065 10.8481 23.3506C10.7417 23.3947 10.6277 23.4174 10.5126 23.4174C10.3975 23.4174 10.2835 23.3947 10.1771 23.3506C10.0708 23.3065 9.97415 23.2419 9.89279 23.1604L3.76051 17.0281C3.59613 16.8638 3.50378 16.6408 3.50378 16.4083C3.50378 16.1759 3.59613 15.9529 3.76051 15.7885C3.92489 15.6242 4.14784 15.5318 4.38031 15.5318C4.61278 15.5318 4.83573 15.6242 5.00011 15.7885L10.5126 21.3021L23.9094 7.90419C24.0738 7.73981 24.2968 7.64746 24.5292 7.64746C24.7617 7.64746 24.9846 7.73981 25.149 7.90419C25.3134 8.06857 25.4058 8.29152 25.4058 8.52399C25.4058 8.75646 25.3134 8.97941 25.149 9.14379Z" fill="#1EB37A"/>
</svg>