<svg width="194" height="73" viewBox="0 0 194 73" fill="none" xmlns="http://www.w3.org/2000/svg">
<rect x="1.0217" y="1.83313" width="191.501" height="69.818" rx="10.9714" transform="rotate(-0.249919 1.0217 1.83313)" fill="white"/>
<rect x="1.0217" y="1.83313" width="191.501" height="69.818" rx="10.9714" transform="rotate(-0.249919 1.0217 1.83313)" stroke="#3F57D6" stroke-width="1.9948"/>
<path d="M18.6255 48.0478L18.6073 43.8799L25.4469 43.85C26.7769 43.8442 27.8799 43.5544 28.7562 42.9806C29.6323 42.3831 30.2935 41.5252 30.7399 40.4071C31.1862 39.2889 31.4059 37.9224 31.3988 36.3074C31.393 34.9775 31.2456 33.8382 30.9564 32.8895C30.6672 31.917 30.2363 31.1233 29.6636 30.5083C29.1147 29.8932 28.4121 29.4332 27.5558 29.1282C26.7232 28.8231 25.737 28.673 24.597 28.678L18.5411 28.7044L18.5229 24.5365L24.4007 24.5108C27.2506 24.4984 29.58 24.9514 31.3889 25.8697C33.1979 26.788 34.5336 28.1122 35.3961 29.8421C36.2585 31.5483 36.695 33.6007 36.7054 35.9993C36.7133 37.8042 36.5064 39.3726 36.0847 40.7044C35.6631 42.0362 35.0861 43.1668 34.354 44.0962C33.6455 45.0255 32.8176 45.7772 31.8701 46.3513C30.9227 46.9254 29.9152 47.3454 28.8476 47.6113C27.78 47.8772 26.7 48.0126 25.6076 48.0173L18.6255 48.0478ZM16.1675 48.0585L16.0649 24.5472L21.1946 24.5248L21.2972 48.0361L16.1675 48.0585ZM45.8473 48.4278C43.6624 48.4373 42.0087 47.7083 40.8861 46.2407C39.7871 44.7493 39.231 42.4837 39.2177 39.4439L39.1733 29.2556L44.303 29.2333L44.3446 38.7803C44.3526 40.6089 44.6317 41.9733 45.1819 42.8734C45.7319 43.7497 46.565 44.1854 47.6812 44.1805C48.3462 44.1776 48.9273 44.0089 49.4246 43.6742C49.9219 43.3395 50.3473 42.8746 50.701 42.2793C51.0546 41.684 51.3128 40.9823 51.4755 40.1741C51.662 39.3658 51.7651 38.4985 51.7848 37.5722L51.7483 29.2008L56.878 29.1784L56.9263 40.2572L56.9596 47.8806L52.8273 47.8986L52.7662 42.0566L52.125 42.0594C51.7751 43.5333 51.3292 44.7465 50.7871 45.6988C50.2687 46.6273 49.5949 47.319 48.7656 47.7738C47.96 48.2048 46.9873 48.4228 45.8473 48.4278ZM60.3073 47.866L60.2578 36.5378L60.2257 29.1638L64.4292 29.1455L64.418 34.7385L65.1305 34.7354C65.4333 33.3803 65.8677 32.2503 66.4337 31.3454C66.9998 30.4405 67.7093 29.7605 68.5623 29.3056C69.439 28.8505 70.4711 28.6204 71.6585 28.6152C73.8197 28.6058 75.4617 29.3586 76.5845 30.8736C77.7311 32.3886 78.3114 34.7729 78.3256 38.0264L78.3682 47.7872L73.2029 47.8097L73.1628 38.6189C73.1541 36.624 72.8509 35.1767 72.2532 34.2768C71.6792 33.3531 70.8341 32.8937 69.7179 32.8985C68.768 32.9027 67.9737 33.203 67.3351 33.7995C66.6964 34.396 66.213 35.1819 65.8848 36.157C65.5802 37.1083 65.4186 38.1777 65.4 39.3653L65.437 47.8436L60.3073 47.866ZM81.4234 47.7739L81.3123 22.3033L86.3708 22.2812L86.4819 47.7518L81.4234 47.7739ZM89.8418 47.7371L89.7603 29.035L94.89 29.0126L94.9716 47.7148L89.8418 47.7371ZM92.3485 26.2094C91.351 26.2137 90.5783 26.0152 90.0303 25.6139C89.506 25.1887 89.2421 24.5724 89.2385 23.7649C89.2349 22.9337 89.4934 22.3032 90.014 21.8735C90.5584 21.4436 91.3293 21.2265 92.3267 21.2222C93.3479 21.2177 94.1207 21.4281 94.645 21.8533C95.1931 22.2784 95.469 22.9065 95.4726 23.7377C95.476 24.5214 95.2055 25.1282 94.6612 25.5581C94.1406 25.9878 93.3697 26.2049 92.3485 26.2094ZM98.3646 47.7L98.3152 36.3718L98.2831 28.9978L102.487 28.9795L102.475 34.5725L103.188 34.5693C103.491 33.2143 103.925 32.0843 104.491 31.1794C105.057 30.2745 105.767 29.5945 106.62 29.1396C107.496 28.6845 108.528 28.4544 109.716 28.4492C111.877 28.4398 113.519 29.1926 114.642 30.7076C115.788 32.2226 116.369 34.6069 116.383 37.8604L116.426 47.6212L111.26 47.6437L111.22 38.4529C111.211 36.458 110.908 35.0107 110.311 34.1108C109.737 33.1871 108.891 32.7277 107.775 32.7325C106.825 32.7367 106.031 33.037 105.392 33.6335C104.754 34.23 104.27 35.0159 103.942 35.991C103.638 36.9423 103.476 38.0117 103.457 39.1993L103.494 47.6776L98.3646 47.7Z" fill="#3F57D6"/>
<rect x="131.144" y="15.4869" width="45.283" height="45.283" rx="5.1126" transform="rotate(-0.249919 131.144 15.4869)" stroke="#3F57D6" stroke-width="1.46074"/>
<path d="M145.957 49.4721C144.962 49.4764 144.079 49.288 143.308 48.9069C142.538 48.5031 141.936 47.929 141.503 47.1845C141.07 46.4399 140.851 45.5135 140.846 44.4053C140.842 43.4327 141.019 42.6177 141.378 41.9602C141.76 41.3026 142.312 40.7686 143.034 40.3584C143.756 39.9481 144.648 39.6049 145.709 39.3289C146.771 39.0528 147.98 38.81 149.337 38.6006C150.06 38.4843 150.647 38.38 151.099 38.2875C151.574 38.1724 151.924 38.0012 152.149 37.774C152.374 37.5243 152.486 37.1732 152.484 36.7208C152.481 36.0875 152.252 35.5457 151.798 35.0953C151.344 34.6449 150.63 34.4218 149.658 34.4261C149.002 34.4289 148.391 34.5447 147.827 34.7733C147.285 35.0019 146.812 35.3432 146.407 35.7974C146.024 36.2514 145.744 36.8294 145.566 37.5313L141.251 36.227C141.519 35.2985 141.9 34.4938 142.394 33.8131C142.912 33.1323 143.531 32.5642 144.253 32.1087C144.975 31.6305 145.799 31.2763 146.725 31.0461C147.651 30.8159 148.657 30.6984 149.743 30.6937C151.485 30.6861 152.9 30.9626 153.988 31.5234C155.098 32.0614 155.928 32.9172 156.476 34.091C157.023 35.2421 157.301 36.7337 157.309 38.5658L157.323 41.6192C157.326 42.4108 157.341 43.2137 157.367 44.0279C157.416 44.8419 157.465 45.6673 157.514 46.5039C157.585 47.3179 157.656 48.1318 157.728 48.9458L153.419 48.9646C153.326 48.3995 153.233 47.7553 153.139 47.0319C153.068 46.2858 153.008 45.5397 152.96 44.7935L152.349 44.7962C152.036 45.657 151.587 46.4393 151.002 47.143C150.417 47.8467 149.696 48.4153 148.838 48.8488C148.003 49.2596 147.043 49.4674 145.957 49.4721ZM148.011 45.9347C148.441 45.9328 148.871 45.8518 149.3 45.6916C149.751 45.5313 150.18 45.3145 150.586 45.0413C151.014 44.7454 151.397 44.3819 151.735 43.9506C152.095 43.5193 152.387 43.0318 152.611 42.4879L152.53 39.6384L153.311 39.8046C152.905 40.1004 152.432 40.34 151.889 40.5233C151.347 40.684 150.782 40.8109 150.195 40.9039C149.63 40.9968 149.065 41.1011 148.5 41.2166C147.935 41.3322 147.427 41.4814 146.975 41.6643C146.546 41.8472 146.197 42.0975 145.926 42.4153C145.679 42.7104 145.556 43.1294 145.559 43.6722C145.562 44.3734 145.79 44.9265 146.245 45.3317C146.699 45.7368 147.288 45.9378 148.011 45.9347ZM160.46 48.9339L160.382 31.1223L165.267 31.101L165.345 48.9125L160.46 48.9339ZM162.847 28.4312C161.897 28.4354 161.161 28.2463 160.639 27.8641C160.14 27.4591 159.888 26.8722 159.885 26.1032C159.881 25.3115 160.128 24.7111 160.623 24.3018C161.142 23.8924 161.876 23.6856 162.826 23.6815C163.799 23.6772 164.535 23.8776 165.034 24.2825C165.556 24.6874 165.819 25.2856 165.822 26.0773C165.825 26.8237 165.568 27.4015 165.049 27.8109C164.554 28.2202 163.819 28.427 162.847 28.4312Z" fill="#3F57D6"/>
<path d="M160.996 14.1035L176.954 14.0339L176.983 20.6832L161.025 20.7528L160.996 14.1035Z" fill="white"/>
<path d="M175.68 14.0391L177.521 14.031L177.735 27.9938L175.741 28.0025L175.68 14.0391Z" fill="white"/>
<path d="M172.542 10.1583C172.652 9.844 173.096 9.84206 173.209 10.1554L175.164 15.579C175.2 15.6791 175.28 15.7577 175.38 15.793L180.82 17.701C181.135 17.8113 181.137 18.2551 180.823 18.3681L175.4 20.3236C175.3 20.3597 175.221 20.439 175.186 20.5395L173.278 25.9799C173.168 26.2942 172.724 26.2961 172.611 25.9828L170.655 20.5592C170.619 20.4591 170.54 20.3805 170.439 20.3452L164.999 18.4372C164.685 18.3269 164.683 17.8831 164.996 17.7701L170.42 15.8146C170.52 15.7785 170.598 15.6992 170.634 15.5987L172.542 10.1583Z" fill="#3F57D6"/>
<path d="M179.674 9.43818C179.707 9.34257 179.842 9.34199 179.877 9.43729L180.471 11.0868C180.482 11.1173 180.506 11.1412 180.537 11.1519L182.192 11.7322C182.287 11.7658 182.288 11.9008 182.193 11.9351L180.543 12.5299C180.513 12.5408 180.489 12.565 180.478 12.5955L179.898 14.2502C179.864 14.3458 179.729 14.3464 179.695 14.2511L179.1 12.6015C179.089 12.5711 179.065 12.5472 179.034 12.5364L177.38 11.9561C177.284 11.9226 177.284 11.7876 177.379 11.7532L179.028 11.1585C179.059 11.1475 179.083 11.1234 179.093 11.0928L179.674 9.43818Z" fill="#3F57D6"/>
</svg>
