<svg width="299" height="145" viewBox="0 0 299 145" fill="none" xmlns="http://www.w3.org/2000/svg">
<g clip-path="url(#clip0_245_9722)">
<rect x="1" y="42.7422" width="285" height="102" rx="15" transform="rotate(-8.42242 1 42.7422)" fill="white"/>
<path d="M35.2589 105.4L34.3408 99.1992L44.5162 97.6925C46.4948 97.3996 48.0749 96.7324 49.2566 95.6908C50.4331 94.614 51.234 93.1956 51.6594 91.4356C52.0848 89.6757 52.1197 87.5944 51.7639 85.1919C51.471 83.2134 51.0079 81.5489 50.3747 80.1984C49.7362 78.8126 48.925 77.7232 47.941 76.9301C46.9924 76.1318 45.8481 75.5972 44.5082 75.3262C43.2036 75.05 41.7033 75.0374 40.0074 75.2885L30.998 76.6225L30.0799 70.4219L38.8243 69.1272C43.0641 68.4994 46.6286 68.6757 49.5177 69.656C52.4069 70.6363 54.6784 72.3219 56.3323 74.7128C57.9808 77.0683 59.0693 80.0303 59.5977 83.5987C59.9953 86.2839 60.0226 88.6628 59.6796 90.7355C59.3366 92.8083 58.7194 94.6147 57.8282 96.1547C56.9723 97.6896 55.9005 98.9856 54.6128 100.043C53.3251 101.1 51.9151 101.941 50.3827 102.565C48.8503 103.189 47.2715 103.621 45.6463 103.862L35.2589 105.4ZM31.6022 105.941L26.4231 70.9634L34.0546 69.8334L39.2337 104.811L31.6022 105.941ZM75.8637 100.146C72.6132 100.627 69.9955 99.8954 68.0106 97.9508C66.0558 95.9655 64.7436 92.7117 64.0739 88.1893L61.8297 73.0322L69.4612 71.9023L71.5642 86.1054C71.967 88.8259 72.6742 90.7973 73.6856 92.0196C74.6917 93.2065 76.0251 93.677 77.6857 93.4311C78.675 93.2847 79.504 92.9092 80.1727 92.3047C80.8414 91.7002 81.3753 90.9171 81.7745 89.9553C82.1737 88.9936 82.408 87.8937 82.4775 86.6559C82.5823 85.4128 82.5503 84.0996 82.3816 82.7165L80.5375 70.2622L88.1691 69.1322L90.6095 85.6143L92.2888 96.9556L86.1412 97.8658L84.8013 89.1822L83.8473 89.3234C83.6417 91.5925 83.2372 93.4937 82.6338 95.0273C82.0606 96.5203 81.2053 97.694 80.0681 98.5484C78.9611 99.3622 77.5596 99.8947 75.8637 100.146ZM97.2692 96.2181L94.7738 79.3652L93.1495 68.3948L99.4031 67.4689L100.582 75.7972L101.642 75.6403C101.803 73.5584 102.208 71.7834 102.857 70.3152C103.507 68.8471 104.417 67.6832 105.59 66.8236C106.798 65.9587 108.285 65.3955 110.052 65.1339C113.267 64.6579 115.872 65.4275 117.867 67.4428C119.898 69.4529 121.272 72.8782 121.988 77.7185L124.139 92.2397L116.454 93.3775L114.429 79.7043C113.99 76.7365 113.229 74.6467 112.147 73.4349C111.095 72.1825 109.739 71.6793 108.078 71.9252C106.665 72.1344 105.547 72.7513 104.724 73.7758C103.901 74.8004 103.349 76.0735 103.069 77.5953C102.819 79.0766 102.807 80.7031 103.033 82.4749L104.901 95.0882L97.2692 96.2181ZM128.684 91.5667L123.073 53.674L130.599 52.5597L136.209 90.4524L128.684 91.5667ZM141.208 89.7123L137.088 61.8889L144.72 60.759L148.839 88.5823L141.208 89.7123ZM140.337 57.1294C138.853 57.3491 137.66 57.2188 136.759 56.7385C135.887 56.2176 135.363 55.3565 135.185 54.1553C135.002 52.9187 135.252 51.9249 135.935 51.1738C136.653 50.4175 137.755 49.9295 139.238 49.7098C140.758 49.4849 141.953 49.6328 142.824 50.1537C143.731 50.6693 144.276 51.5454 144.459 52.782C144.632 53.948 144.359 54.9091 143.641 55.6654C142.957 56.4164 141.856 56.9044 140.337 57.1294ZM153.887 87.8349L151.392 70.9819L149.768 60.0115L156.021 59.0856L157.2 67.4139L158.26 67.257C158.421 65.1751 158.826 63.4001 159.476 61.9319C160.125 60.4638 161.036 59.2999 162.208 58.4403C163.416 57.5754 164.903 57.0122 166.67 56.7507C169.885 56.2746 172.49 57.0442 174.485 59.0596C176.516 61.0697 177.89 64.4949 178.607 69.3353L180.757 83.8564L173.072 84.9942L171.048 71.321C170.608 68.3532 169.847 66.2634 168.765 65.0516C167.713 63.7992 166.357 63.296 164.697 63.5419C163.283 63.7511 162.165 64.368 161.342 65.3925C160.519 66.4171 159.967 67.6902 159.687 69.2121C159.437 70.6933 159.425 72.3198 159.651 74.0916L161.519 86.7049L153.887 87.8349Z" fill="#3F57D6"/>
<rect x="195.917" y="33.9918" width="68.1015" height="68.1015" rx="7.68888" transform="rotate(-8.42242 195.917 33.9918)" stroke="#3F57D6" stroke-width="2.19682"/>
<path d="M224.845 80.8616C223.365 81.0808 222.01 80.9891 220.781 80.5864C219.548 80.1502 218.529 79.4241 217.725 78.4084C216.922 77.3927 216.398 76.0604 216.153 74.4116C215.939 72.9647 216.029 71.7135 216.423 70.658C216.85 69.5974 217.558 68.6846 218.545 67.9195C219.532 67.1544 220.786 66.4529 222.308 65.8149C223.83 65.177 225.578 64.5571 227.552 63.9553C228.604 63.6277 229.456 63.3467 230.109 63.1125C230.791 62.8396 231.275 62.51 231.562 62.1237C231.843 61.7037 231.934 61.1573 231.835 60.4843C231.695 59.5421 231.239 58.7844 230.466 58.211C229.694 57.6377 228.584 57.4582 227.137 57.6724C226.161 57.8169 225.278 58.1197 224.486 58.5807C223.729 59.0368 223.097 59.6461 222.591 60.4088C222.118 61.1665 221.825 62.0868 221.71 63.1697L215.008 62.1504C215.208 60.711 215.603 59.4318 216.194 58.3127C216.818 57.1887 217.619 56.2104 218.596 55.378C219.568 54.512 220.719 53.8086 222.049 53.2678C223.379 52.727 224.851 52.3371 226.467 52.0979C229.058 51.7143 231.223 51.8235 232.963 52.4256C234.731 52.989 236.148 54.0858 237.215 55.716C238.277 57.3125 239.009 59.4735 239.413 62.1991L240.086 66.7417C240.26 67.9194 240.454 69.1114 240.667 70.3178C240.913 71.5192 241.162 72.7374 241.414 73.9724C241.694 75.1688 241.975 76.3653 242.255 77.5617L235.845 78.5108C235.586 77.6895 235.309 76.7504 235.015 75.6936C234.75 74.5981 234.501 73.5002 234.27 72.3997L233.361 72.5343C233.079 73.8827 232.578 75.1432 231.858 76.3158C231.137 77.4885 230.185 78.4891 229.001 79.3178C227.846 80.1078 226.461 80.6224 224.845 80.8616ZM227.147 75.1565C227.786 75.0618 228.408 74.8494 229.013 74.5192C229.651 74.184 230.243 73.7697 230.789 73.2762C231.363 72.7441 231.856 72.121 232.266 71.407C232.709 70.6879 233.04 69.8997 233.257 69.0423L232.528 64.8175L233.726 64.898C233.185 65.4251 232.531 65.883 231.763 66.2718C230.99 66.6269 230.177 66.9365 229.322 67.2007C228.5 67.4598 227.682 67.7358 226.865 68.0286C226.049 68.3214 225.324 68.6522 224.691 69.0211C224.092 69.3849 223.625 69.8323 223.291 70.3631C222.986 70.8554 222.893 71.5053 223.012 72.3129C223.167 73.356 223.625 74.1305 224.388 74.6366C225.151 75.1426 226.07 75.3159 227.147 75.1565ZM246.319 76.9599L242.395 50.4615L249.663 49.3854L253.587 75.8838L246.319 76.9599ZM245.49 45.9286C244.076 46.1378 242.94 46.0138 242.082 45.5563C241.252 45.0603 240.752 44.2402 240.583 43.0961C240.408 41.9184 240.646 40.9719 241.297 40.2566C241.981 39.5364 243.03 39.0716 244.443 38.8624C245.89 38.6481 247.029 38.789 247.859 39.2851C248.722 39.7762 249.241 40.6106 249.415 41.7883C249.58 42.8987 249.32 43.814 248.636 44.5343C247.985 45.2496 246.936 45.7144 245.49 45.9286Z" fill="#3F57D6"/>
<path d="M240.059 25.5466L263.8 22.0313L265.264 31.9235L241.523 35.4388L240.059 25.5466Z" fill="white"/>
<path d="M261.906 22.3123L264.646 21.9066L267.95 42.6464L264.982 43.0858L261.906 22.3123Z" fill="white"/>
<path d="M256.403 17.2068C256.5 16.7153 257.161 16.6175 257.396 17.0598L261.466 24.7155C261.542 24.8569 261.676 24.9569 261.833 24.9879L270.34 26.6652C270.832 26.7622 270.929 27.4225 270.487 27.6577L262.831 31.7281C262.69 31.8033 262.59 31.9381 262.559 32.0952L260.882 40.6019C260.785 41.0934 260.124 41.1912 259.889 40.7489L255.819 33.0932C255.744 32.9519 255.609 32.8518 255.452 32.8208L246.945 31.1435C246.453 31.0466 246.356 30.3862 246.798 30.1511L254.454 26.0806C254.595 26.0054 254.695 25.8706 254.726 25.7135L256.403 17.2068Z" fill="#3F57D6"/>
<path d="M266.868 14.6101C266.897 14.4606 267.098 14.4309 267.17 14.5654L268.408 16.8938C268.431 16.9368 268.472 16.9672 268.519 16.9766L271.107 17.4868C271.256 17.5163 271.286 17.7171 271.151 17.7886L268.823 19.0266C268.78 19.0495 268.749 19.0905 268.74 19.1383L268.23 21.7255C268.2 21.875 268 21.9048 267.928 21.7702L266.69 19.4418C266.667 19.3988 266.626 19.3684 266.578 19.359L263.991 18.8488C263.842 18.8193 263.812 18.6185 263.946 18.547L266.275 17.309C266.318 17.2861 266.348 17.2451 266.358 17.1973L266.868 14.6101Z" fill="#3F57D6"/>
</g>
<rect x="-0.703528" y="41.4781" width="288" height="105" rx="16.5" transform="rotate(-8.42242 -0.703528 41.4781)" stroke="#3F57D6" stroke-width="3"/>
<defs>
<clipPath id="clip0_245_9722">
<rect x="1" y="42.7422" width="285" height="102" rx="15" transform="rotate(-8.42242 1 42.7422)" fill="white"/>
</clipPath>
</defs>
</svg>
