<svg width="60" height="60" viewBox="0 0 60 60" fill="none" xmlns="http://www.w3.org/2000/svg">
<path d="M36.5311 13.0138C33.9644 15.6228 32.6335 19.1015 32.6335 22.5801C32.6335 19.1015 31.3027 15.6228 28.7359 13.0138C23.5075 7.69912 15.142 7.69912 9.91352 13.0138C4.68508 18.3285 4.68508 26.9286 9.91352 32.1466L10.0086 32.2432H9.81847L32.5384 55.3378L55.3535 32.05C60.582 26.7353 60.582 18.1351 55.3535 12.9172C50.1251 7.69912 41.7596 7.69912 36.5311 13.0138Z" fill="#3F57D6"/>
<path d="M51.4762 8.74131C48.8295 5.99739 45.2375 4.57812 41.4564 4.57812C37.6754 4.57812 34.0834 6.09201 31.4366 8.74131C30.0188 10.1606 28.979 11.8637 28.2229 13.6615C27.5611 11.8637 26.4269 10.1606 25.0089 8.74131C22.3622 5.99739 18.7703 4.57812 14.9892 4.57812C11.2082 4.57812 7.61617 6.09201 4.96944 8.74131C-0.418539 14.1345 -0.513065 22.9341 4.59134 28.5165C4.59134 28.7057 4.68586 28.8004 4.87492 28.9896L27.4666 51.6033C27.6557 51.7925 27.8447 51.8871 28.1283 51.8871C28.4119 51.8871 28.601 51.7925 28.79 51.6033L51.4762 28.895C57.0532 23.2179 57.0532 14.2292 51.4762 8.74131ZM50.1529 27.4757L28.1283 49.5217L6.6709 28.0434C6.57639 27.8542 6.48185 27.6649 6.29281 27.4757C1.47198 22.6501 1.47198 14.8915 6.29281 10.066C8.65596 7.70052 11.6808 6.47049 14.9892 6.47049C18.2976 6.47049 21.3225 7.79514 23.6856 10.066C26.0488 12.4314 27.2775 15.4592 27.2775 18.7708C27.2775 19.3385 27.6557 19.717 28.2229 19.717C28.79 19.717 29.168 19.3385 29.168 18.7708C29.168 15.4592 30.4915 12.3368 32.7601 10.066C35.1232 7.70052 38.1481 6.47049 41.4564 6.47049C44.7649 6.47049 47.7897 7.79514 50.1529 10.066C54.9737 14.7969 54.9737 22.6501 50.1529 27.4757Z" fill="#282C3F"/>
<path d="M28.1269 49.5219L50.1514 27.476C54.9723 22.6504 54.9723 14.7971 50.1514 10.0662C47.7883 7.79536 44.7634 6.4707 41.4551 6.4707C38.1467 6.4707 35.1218 7.70074 32.7587 10.0662C30.4901 12.337 29.1666 15.4594 29.1666 18.7711C29.1666 19.3387 28.7886 19.7172 28.2214 19.7172C27.6543 19.7172 27.2761 19.3387 27.2761 18.7711C27.2761 15.4594 26.0474 12.4316 23.6842 10.0662C21.3211 7.79536 18.2962 6.4707 14.9878 6.4707C11.6794 6.4707 8.65455 7.70074 6.2914 10.0662C1.47057 14.8917 1.47057 22.6504 6.2914 27.476C6.48045 27.6651 6.57498 27.8543 6.6695 28.0436L28.1269 49.5219Z" fill="white"/>
<path d="M14.9877 8.36328C9.22162 8.36328 4.58984 12.9996 4.58984 18.7713C4.58984 19.3389 4.96795 19.7174 5.53511 19.7174C6.10226 19.7174 6.48037 19.3389 6.48037 18.7713C6.48037 14.0404 10.2614 10.2556 14.9877 10.2556C15.5549 10.2556 15.933 9.87718 15.933 9.30947C15.933 8.74176 15.5549 8.36328 14.9877 8.36328Z" fill="#282C3F"/>
<path d="M35.123 31.3561L27.5609 38.9256C27.1828 39.3041 27.1828 39.8717 27.5609 40.2502C27.75 40.4395 28.0336 40.5341 28.2227 40.5341C28.4117 40.5341 28.6953 40.4395 28.8844 40.2502L36.4464 32.6808C36.8246 32.3023 36.8246 31.7346 36.4464 31.3561C36.0683 30.9776 35.5011 30.9776 35.123 31.3561Z" fill="#282C3F"/>
<path d="M28.2227 36.7494C28.5062 36.7494 28.6953 36.6547 28.8844 36.4656L32.6653 32.6808C33.0435 32.3023 33.0435 31.7346 32.6653 31.3561C32.2872 30.9776 31.7202 30.9776 31.342 31.3561L27.5609 35.1409C27.1828 35.5193 27.1828 36.0871 27.5609 36.4656C27.75 36.6547 27.9391 36.7494 28.2227 36.7494Z" fill="#282C3F"/>
<path d="M35.1233 35.1412L31.3422 38.926C30.9641 39.3045 30.9641 39.8721 31.3422 40.2506C31.5312 40.4398 31.8148 40.5345 32.0039 40.5345C32.193 40.5345 32.4766 40.4398 32.6656 40.2506L36.4466 36.4659C36.8247 36.0875 36.8247 35.5197 36.4466 35.1412C36.0685 34.7628 35.5014 34.7628 35.1233 35.1412Z" fill="#282C3F"/>
<path d="M41.457 8.45898C40.8898 8.45898 40.5117 8.83746 40.5117 9.40517C40.5117 9.97288 40.8898 10.3513 41.457 10.3513C46.0888 10.3513 49.8699 14.1361 49.8699 18.7724C49.8699 19.34 50.2479 19.7185 50.8151 19.7185C51.3823 19.7185 51.7604 19.34 51.7604 18.7724C51.7604 13.0953 47.1286 8.45898 41.457 8.45898Z" fill="#282C3F"/>
</svg>
