<svg width="257" height="48" viewBox="0 0 257 48" fill="none" xmlns="http://www.w3.org/2000/svg">
<path d="M257 0H0L26.3946 24L0 48H257L230.605 24L257 0Z" fill="#F3F6FA"/>
<path d="M80.1016 35.8C79.0616 35.52 78.2616 34.99 77.7016 34.21C77.1616 33.43 76.8616 32.35 76.8016 30.97C76.7616 29.57 76.9516 27.83 77.3716 25.75C77.5116 25.05 77.7116 24.25 77.9716 23.35C78.2316 22.45 78.5316 21.53 78.8716 20.59C79.2316 19.63 79.6016 18.71 79.9816 17.83C80.3816 16.93 80.7716 16.14 81.1516 15.46C81.6116 14.64 82.0116 14.09 82.3516 13.81C82.6916 13.53 83.0216 13.41 83.3416 13.45C83.8216 13.53 84.1816 13.73 84.4216 14.05C84.6816 14.35 84.8016 14.68 84.7816 15.04C84.7816 15.38 84.6116 15.66 84.2716 15.88C84.0516 16.14 83.7616 16.62 83.4016 17.32C83.0616 18 82.7116 18.66 82.3516 19.3C81.9516 20.46 81.6016 21.49 81.3016 22.39C81.0016 23.27 80.7516 24.1 80.5516 24.88C80.3516 25.66 80.1716 26.48 80.0116 27.34C79.8316 28.18 79.6916 28.83 79.5916 29.29C79.4916 29.73 79.4216 30.07 79.3816 30.31C79.3616 30.53 79.3416 30.73 79.3216 30.91C79.3216 31.07 79.3216 31.29 79.3216 31.57C79.4816 31.83 79.6116 32.06 79.7116 32.26C79.8116 32.46 79.9416 32.58 80.1016 32.62C80.4416 32.78 80.7816 32.86 81.1216 32.86C81.4816 32.86 81.8716 32.74 82.2916 32.5C82.3916 32.3 82.5216 32.16 82.6816 32.08C82.8416 32 82.9216 31.96 82.9216 31.96C82.9616 32.06 83.0016 32.09 83.0416 32.05C83.1016 31.99 83.1416 31.92 83.1616 31.84C83.1416 31.76 83.1616 31.69 83.2216 31.63C83.2816 31.55 83.3516 31.47 83.4316 31.39C83.5916 31.33 83.7916 31.16 84.0316 30.88C84.2916 30.6 84.5416 30.29 84.7816 29.95C85.0216 29.59 85.2216 29.26 85.3816 28.96C85.5616 28.66 85.6516 28.47 85.6516 28.39C85.6516 28.29 85.6916 28.2 85.7716 28.12C85.8516 28.04 85.9416 27.94 86.0416 27.82C86.1416 27.72 86.3416 27.4 86.6416 26.86C86.9616 26.3 87.3016 25.65 87.6616 24.91C88.0416 24.17 88.3816 23.49 88.6816 22.87C88.7416 22.65 88.8516 22.3 89.0116 21.82C89.1716 21.32 89.3416 20.75 89.5216 20.11C89.7216 19.47 89.9116 18.83 90.0916 18.19C90.2716 17.53 90.4316 16.95 90.5716 16.45C90.7316 15.93 90.8316 15.55 90.8716 15.31C90.9116 15.05 90.9716 14.84 91.0516 14.68C91.1316 14.5 91.1816 14.37 91.2016 14.29C91.4216 14.11 91.6716 14.06 91.9516 14.14C92.2316 14.22 92.4916 14.34 92.7316 14.5C92.9916 14.64 93.1816 14.74 93.3016 14.8C93.4216 14.96 93.4716 15.16 93.4516 15.4C93.4316 15.64 93.3616 16.01 93.2416 16.51C93.1416 16.99 92.9916 17.69 92.7916 18.61C92.3716 20.25 91.8616 21.76 91.2616 23.14C90.6816 24.52 90.0516 25.98 89.3716 27.52C89.3716 27.52 89.3716 27.53 89.3716 27.55C89.3716 27.55 89.3716 27.6 89.3716 27.7C89.1316 27.84 88.9416 28.05 88.8016 28.33C88.7016 28.51 88.6116 28.67 88.5316 28.81C88.4716 28.93 88.3916 29.02 88.2916 29.08C88.2316 29.26 88.1716 29.42 88.1116 29.56C88.0516 29.7 88.0216 29.77 88.0216 29.77C88.0016 29.87 87.9316 29.96 87.8116 30.04C87.6916 30.12 87.5716 30.2 87.4516 30.28C87.3516 30.32 87.2916 30.4 87.2716 30.52C87.2516 30.64 87.2116 30.74 87.1516 30.82C86.7116 31.48 86.1716 32.15 85.5316 32.83C84.8916 33.49 84.2316 34.07 83.5516 34.57C82.8916 35.07 82.2916 35.42 81.7516 35.62C81.3916 35.76 81.0916 35.84 80.8516 35.86C80.6316 35.88 80.3816 35.86 80.1016 35.8ZM92.8873 34.18C92.2073 33.9 91.7073 33.61 91.3873 33.31C91.0873 32.99 90.9673 32.71 91.0273 32.47C91.0673 32.35 91.1373 32.24 91.2373 32.14C91.3373 32.04 91.5573 32 91.8973 32.02C92.2573 32.02 92.8073 32.11 93.5473 32.29C93.7673 32.29 93.9873 32.28 94.2073 32.26C94.4273 32.24 94.6273 32.21 94.8073 32.17C95.0073 32.13 95.1673 32.08 95.2873 32.02C95.3873 31.98 95.4173 31.93 95.3773 31.87C95.3373 31.79 95.2673 31.71 95.1673 31.63C95.0873 31.53 94.9973 31.47 94.8973 31.45C94.7973 31.41 94.7073 31.39 94.6273 31.39C94.5873 31.29 94.4973 31.19 94.3573 31.09C94.2373 30.99 94.0873 30.88 93.9073 30.76C93.4673 30.4 93.0673 30.08 92.7073 29.8C92.3473 29.52 92.2073 29.31 92.2873 29.17C92.2873 29.09 92.2873 29.05 92.2873 29.05C92.2873 29.03 92.2873 29.02 92.2873 29.02C92.1473 29.02 92.0173 28.83 91.8973 28.45C91.7773 28.05 91.7173 27.69 91.7173 27.37C91.7173 26.97 91.7973 26.57 91.9573 26.17C92.1373 25.77 92.3573 25.39 92.6173 25.03C92.8973 24.67 93.1773 24.35 93.4573 24.07C93.8373 23.71 94.2373 23.36 94.6573 23.02C95.0973 22.66 95.5673 22.34 96.0673 22.06C96.5873 21.78 97.1573 21.56 97.7773 21.4C98.0573 21.34 98.3773 21.31 98.7373 21.31C99.0973 21.31 99.3573 21.36 99.5173 21.46C99.6773 21.36 99.8773 21.39 100.117 21.55C100.357 21.69 100.597 21.89 100.837 22.15C101.077 22.41 101.257 22.67 101.377 22.93C101.377 23.17 101.367 23.47 101.347 23.83C101.347 24.17 101.327 24.47 101.287 24.73C101.247 24.99 101.157 25.12 101.017 25.12C101.017 25.12 100.987 25.13 100.927 25.15C100.887 25.15 100.867 25.2 100.867 25.3C100.867 25.5 100.717 25.73 100.417 25.99C100.037 26.25 99.6773 26.46 99.3373 26.62C98.9973 26.78 98.7373 26.79 98.5573 26.65C98.4373 26.57 98.3273 26.49 98.2273 26.41C98.1273 26.33 98.0373 26.23 97.9573 26.11C97.9573 26.11 97.9273 26.07 97.8673 25.99C97.8273 25.89 97.8073 25.8 97.8073 25.72C97.8073 25.64 97.8373 25.57 97.8973 25.51C97.9573 25.43 97.9873 25.39 97.9873 25.39C98.2673 25.13 98.4773 24.89 98.6173 24.67C98.7773 24.45 98.8873 24.26 98.9473 24.1C99.0073 23.92 99.0373 23.78 99.0373 23.68C99.0373 23.56 99.0073 23.49 98.9473 23.47C98.9073 23.43 98.8073 23.41 98.6473 23.41C98.5473 23.41 98.3273 23.49 97.9873 23.65C97.6673 23.81 97.3273 24.01 96.9673 24.25C96.6073 24.47 96.3273 24.67 96.1273 24.85C96.0473 24.99 95.9873 25.08 95.9473 25.12C95.9273 25.16 95.8773 25.18 95.7973 25.18C95.7973 25.1 95.7473 25.11 95.6473 25.21C95.5473 25.31 95.4273 25.45 95.2873 25.63C95.1473 25.81 95.0073 26 94.8673 26.2C94.7273 26.4 94.6173 26.56 94.5373 26.68C94.5173 26.86 94.4673 27.03 94.3873 27.19C94.3273 27.33 94.3073 27.48 94.3273 27.64C94.3473 27.84 94.4473 28.03 94.6273 28.21C94.8073 28.39 95.0673 28.62 95.4073 28.9C96.1073 29.42 96.6273 29.83 96.9673 30.13C97.3273 30.43 97.5773 30.67 97.7173 30.85C97.8573 31.03 97.9473 31.21 97.9873 31.39C98.3273 32.01 98.3673 32.55 98.1073 33.01C97.8473 33.45 97.4473 33.79 96.9073 34.03C96.7073 34.13 96.3573 34.22 95.8573 34.3C95.3573 34.4 94.8273 34.44 94.2673 34.42C93.7273 34.42 93.2673 34.34 92.8873 34.18ZM107.876 33.4C107.276 33.74 106.636 33.94 105.956 34C105.296 34.04 104.676 33.95 104.096 33.73C103.516 33.49 103.046 33.14 102.686 32.68C102.486 32.42 102.296 32.01 102.116 31.45C101.936 30.87 101.906 30.09 102.026 29.11C102.146 28.19 102.426 27.26 102.866 26.32C103.326 25.38 103.886 24.55 104.546 23.83C105.206 23.11 105.926 22.62 106.706 22.36C106.986 22.26 107.266 22.19 107.546 22.15C107.846 22.09 108.236 22.08 108.716 22.12C109.176 22.18 109.586 22.3 109.946 22.48C110.306 22.64 110.566 22.82 110.726 23.02C111.046 23.34 111.256 23.65 111.356 23.95C111.456 24.25 111.496 24.54 111.476 24.82C111.376 25.46 111.086 26.15 110.606 26.89C110.146 27.63 109.496 28.18 108.656 28.54C108.316 28.68 107.916 28.77 107.456 28.81C106.996 28.85 106.366 28.79 105.566 28.63C105.086 28.53 104.766 28.58 104.606 28.78C104.466 28.98 104.406 29.37 104.426 29.95C104.466 30.31 104.546 30.63 104.666 30.91C104.806 31.17 105.056 31.35 105.416 31.45C105.876 31.53 106.206 31.54 106.406 31.48C106.606 31.4 106.856 31.29 107.156 31.15C107.316 31.05 107.466 30.94 107.606 30.82C107.766 30.7 107.916 30.58 108.056 30.46C108.216 30.34 108.346 30.25 108.446 30.19C108.546 30.11 108.646 30.06 108.746 30.04C108.846 30.02 108.946 30.01 109.046 30.01C109.266 30.03 109.476 30.15 109.676 30.37C109.876 30.59 110.006 30.8 110.066 31C110.066 31.16 109.966 31.39 109.766 31.69C109.566 31.97 109.296 32.27 108.956 32.59C108.636 32.89 108.276 33.16 107.876 33.4ZM107.486 26.71C107.626 26.65 107.826 26.51 108.086 26.29C108.366 26.07 108.616 25.84 108.836 25.6C109.056 25.34 109.166 25.14 109.166 25C109.166 24.78 109.016 24.59 108.716 24.43C108.436 24.27 108.066 24.24 107.606 24.34C107.446 24.38 107.256 24.49 107.036 24.67C106.816 24.85 106.596 25.06 106.376 25.3C106.156 25.52 105.966 25.74 105.806 25.96C105.646 26.16 105.536 26.32 105.476 26.44C105.556 26.54 105.716 26.62 105.956 26.68C106.196 26.74 106.456 26.77 106.736 26.77C107.036 26.77 107.286 26.75 107.486 26.71ZM123.601 35.98C123.301 35.86 122.951 35.69 122.551 35.47C122.151 35.27 121.771 35 121.411 34.66C121.051 34.32 120.771 33.91 120.571 33.43C120.371 32.85 120.231 32.28 120.151 31.72C120.091 31.16 120.071 30.51 120.091 29.77C120.091 28.73 120.161 27.83 120.301 27.07C120.461 26.29 120.701 25.5 121.021 24.7C121.061 24.64 121.131 24.47 121.231 24.19C121.351 23.89 121.481 23.57 121.621 23.23C121.781 22.89 121.901 22.63 121.981 22.45C122.141 22.11 122.381 21.66 122.701 21.1C123.041 20.52 123.401 19.96 123.781 19.42C124.361 18.56 124.851 17.86 125.251 17.32C125.651 16.76 126.031 16.29 126.391 15.91C126.771 15.53 127.181 15.16 127.621 14.8C128.081 14.44 128.651 14.03 129.331 13.57C129.771 13.25 130.331 13.05 131.011 12.97C131.711 12.89 132.391 13 133.051 13.3C133.711 13.58 134.201 14.12 134.521 14.92C134.741 15.34 134.841 15.87 134.821 16.51C134.801 17.13 134.681 17.8 134.461 18.52C134.241 19.22 133.961 19.88 133.621 20.5C133.281 21.12 132.901 21.62 132.481 22C132.221 22.24 131.871 22.28 131.431 22.12C131.011 21.96 130.661 21.75 130.381 21.49C130.201 21.15 130.101 20.95 130.081 20.89C130.081 20.83 130.121 20.79 130.201 20.77C130.321 20.63 130.481 20.39 130.681 20.05C130.881 19.71 131.081 19.35 131.281 18.97C131.481 18.57 131.621 18.25 131.701 18.01C131.861 17.17 131.971 16.62 132.031 16.36C132.091 16.08 132.031 15.85 131.851 15.67C131.771 15.59 131.651 15.56 131.491 15.58C131.351 15.6 131.111 15.7 130.771 15.88C130.311 16.08 129.761 16.49 129.121 17.11C128.501 17.71 127.881 18.43 127.261 19.27C126.461 20.33 125.791 21.27 125.251 22.09C124.711 22.91 124.301 23.75 124.021 24.61C123.981 24.69 123.911 24.84 123.811 25.06C123.731 25.28 123.691 25.39 123.691 25.39C123.711 25.47 123.681 25.67 123.601 25.99C123.521 26.29 123.431 26.55 123.331 26.77C123.111 27.69 122.981 28.58 122.941 29.44C122.901 30.28 122.951 31.02 123.091 31.66C123.251 32.28 123.481 32.74 123.781 33.04C124.041 33.22 124.371 33.28 124.771 33.22C125.171 33.16 125.631 33.02 126.151 32.8C126.671 32.58 127.231 32.34 127.831 32.08C128.311 31.88 128.751 31.66 129.151 31.42C129.551 31.18 129.851 30.97 130.051 30.79C130.211 30.67 130.411 30.55 130.651 30.43C130.911 30.29 131.131 30.22 131.311 30.22C131.591 30.12 131.801 30.2 131.941 30.46C132.081 30.72 132.151 31.05 132.151 31.45C132.151 31.73 131.951 32.07 131.551 32.47C131.151 32.87 130.711 33.21 130.231 33.49C130.071 33.65 129.851 33.8 129.571 33.94C129.311 34.06 129.041 34.17 128.761 34.27C128.341 34.59 127.821 34.9 127.201 35.2C126.581 35.5 125.951 35.73 125.311 35.89C124.691 36.05 124.121 36.08 123.601 35.98ZM137.238 33.58C137.078 33.62 136.868 33.64 136.608 33.64C136.348 33.62 136.118 33.59 135.918 33.55C135.738 33.49 135.648 33.43 135.648 33.37C135.648 33.27 135.598 33.22 135.498 33.22C135.498 33.22 135.388 33.14 135.168 32.98C134.948 32.8 134.748 32.67 134.568 32.59C134.388 32.31 134.268 31.99 134.208 31.63C134.168 31.25 134.288 30.59 134.568 29.65C134.588 29.01 134.768 28.34 135.108 27.64C135.448 26.92 135.878 26.22 136.398 25.54C136.918 24.86 137.458 24.26 138.018 23.74C138.578 23.2 139.078 22.8 139.518 22.54C139.798 22.26 140.168 22.11 140.628 22.09C141.108 22.07 141.528 22.16 141.888 22.36C142.088 22.46 142.308 22.66 142.548 22.96C142.788 23.26 143.018 23.58 143.238 23.92C143.458 24.24 143.628 24.53 143.748 24.79C143.808 25.01 143.858 25.21 143.898 25.39C143.958 25.55 143.998 25.75 144.018 25.99C144.038 26.23 144.018 26.59 143.958 27.07C143.858 27.43 143.768 27.8 143.688 28.18C143.628 28.54 143.598 28.91 143.598 29.29C143.558 29.67 143.598 29.94 143.718 30.1C143.858 30.26 144.058 30.27 144.318 30.13C144.558 30.01 144.808 30 145.068 30.1C145.328 30.18 145.508 30.34 145.608 30.58C145.728 30.8 145.698 31.09 145.518 31.45C145.398 31.71 145.208 31.96 144.948 32.2C144.688 32.44 144.398 32.64 144.078 32.8C143.758 32.94 143.448 33.01 143.148 33.01C142.928 33.01 142.708 32.93 142.488 32.77C142.268 32.59 142.068 32.35 141.888 32.05C141.708 31.75 141.558 31.42 141.438 31.06L141.258 30.37L140.178 31.36C139.918 31.64 139.658 31.9 139.398 32.14C139.158 32.36 139.008 32.52 138.948 32.62C138.848 32.8 138.648 32.96 138.348 33.1C138.068 33.24 137.698 33.4 137.238 33.58ZM138.048 30.7C138.388 30.5 138.678 30.26 138.918 29.98C139.178 29.7 139.428 29.39 139.668 29.05C139.908 28.69 140.168 28.31 140.448 27.91C140.788 27.45 141.028 27.08 141.168 26.8C141.328 26.52 141.448 26.22 141.528 25.9C141.448 25.68 141.338 25.45 141.198 25.21C141.058 24.95 140.918 24.81 140.778 24.79C140.498 24.79 140.158 24.96 139.758 25.3C139.378 25.64 138.958 26.13 138.498 26.77C138.418 26.87 138.318 27.03 138.198 27.25C138.078 27.47 137.958 27.68 137.838 27.88C137.738 28.06 137.668 28.18 137.628 28.24C137.568 28.32 137.478 28.51 137.358 28.81C137.258 29.09 137.168 29.38 137.088 29.68C137.008 29.96 136.968 30.16 136.968 30.28C136.968 30.4 136.978 30.53 136.998 30.67C137.038 30.81 137.138 30.9 137.298 30.94C137.458 30.98 137.708 30.9 138.048 30.7ZM149.992 34.18C149.352 34.18 148.762 34.04 148.222 33.76C147.702 33.46 147.282 33.1 146.962 32.68C146.642 32.24 146.482 31.82 146.482 31.42C146.482 31.24 146.512 31.11 146.572 31.03C146.652 30.95 146.762 30.91 146.902 30.91C147.002 30.93 147.122 30.98 147.262 31.06C147.402 31.14 147.542 31.23 147.682 31.33C148.002 31.55 148.352 31.69 148.732 31.75C149.112 31.81 149.452 31.79 149.752 31.69C150.052 31.57 150.222 31.39 150.262 31.15C150.262 31.07 150.222 30.9 150.142 30.64C150.062 30.38 149.962 30.13 149.842 29.89C149.342 29.15 149.032 28.45 148.912 27.79C148.792 27.11 148.712 26.43 148.672 25.75C148.672 25.47 148.802 25.16 149.062 24.82C149.322 24.46 149.642 24.11 150.022 23.77C150.442 23.41 150.902 23.07 151.402 22.75C151.922 22.43 152.432 22.16 152.932 21.94C153.432 21.72 153.852 21.59 154.192 21.55C154.552 21.55 154.932 21.57 155.332 21.61C155.752 21.63 156.032 21.7 156.172 21.82C156.452 22.04 156.712 22.4 156.952 22.9C157.192 23.4 157.312 23.82 157.312 24.16C157.312 24.32 157.222 24.52 157.042 24.76C156.882 24.98 156.732 25.23 156.592 25.51C156.512 25.65 156.442 25.8 156.382 25.96C156.322 26.12 156.252 26.28 156.172 26.44C156.052 26.72 155.832 26.84 155.512 26.8C155.212 26.74 154.932 26.58 154.672 26.32C154.412 26.04 154.282 25.72 154.282 25.36C154.282 25.06 154.372 24.8 154.552 24.58C154.732 24.36 154.822 24.21 154.822 24.13C154.822 24.09 154.802 24.06 154.762 24.04C154.722 24.02 154.652 24.01 154.552 24.01C154.412 24.01 154.182 24.07 153.862 24.19C153.562 24.29 153.242 24.44 152.902 24.64C152.562 24.84 152.252 25.08 151.972 25.36C151.772 25.58 151.602 25.82 151.462 26.08C151.342 26.32 151.282 26.58 151.282 26.86C151.282 27.14 151.332 27.47 151.432 27.85C151.552 28.21 151.682 28.51 151.822 28.75C151.862 28.79 151.922 28.9 152.002 29.08C152.102 29.24 152.212 29.44 152.332 29.68C153.072 31.2 153.192 32.33 152.692 33.07C152.212 33.81 151.312 34.18 149.992 34.18ZM159.971 33.73C159.191 33.41 158.651 32.89 158.351 32.17C158.051 31.45 157.971 30.49 158.111 29.29C158.151 28.67 158.131 28.26 158.051 28.06C157.971 27.84 157.821 27.63 157.601 27.43C157.541 27.35 157.401 27.22 157.181 27.04C156.961 26.84 156.861 26.69 156.881 26.59C156.861 26.45 156.891 26.28 156.971 26.08C157.051 25.86 157.121 25.74 157.181 25.72C157.321 25.66 157.461 25.59 157.601 25.51C157.761 25.43 157.881 25.41 157.961 25.45C158.041 25.45 158.161 25.5 158.321 25.6C158.501 25.7 158.591 25.79 158.591 25.87C158.671 26.01 158.791 25.95 158.951 25.69C159.131 25.43 159.321 25.1 159.521 24.7C159.721 24.38 159.971 24.08 160.271 23.8C160.571 23.52 160.871 23.27 161.171 23.05C161.491 22.81 161.761 22.63 161.981 22.51C162.081 22.47 162.271 22.41 162.551 22.33C162.851 22.25 163.161 22.19 163.481 22.15C163.801 22.09 164.041 22.07 164.201 22.09C164.561 22.11 164.941 22.26 165.341 22.54C165.741 22.82 166.051 23.08 166.271 23.32C166.531 23.5 166.701 23.78 166.781 24.16C166.881 24.52 166.921 24.9 166.901 25.3C166.881 25.7 166.801 26.04 166.661 26.32C166.601 26.52 166.391 26.8 166.031 27.16C165.671 27.52 165.271 27.87 164.831 28.21C164.411 28.53 164.051 28.75 163.751 28.87C163.491 28.93 163.181 28.98 162.821 29.02C162.461 29.04 162.121 29.04 161.801 29.02C161.501 28.98 161.291 28.93 161.171 28.87C161.031 28.79 160.911 28.82 160.811 28.96C160.731 29.08 160.661 29.42 160.601 29.98C160.581 30.2 160.581 30.39 160.601 30.55C160.641 30.71 160.681 30.83 160.721 30.91C160.861 31.15 161.001 31.33 161.141 31.45C161.281 31.55 161.541 31.58 161.921 31.54C162.301 31.5 162.681 31.27 163.061 30.85C163.461 30.41 163.821 30.06 164.141 29.8C164.221 29.66 164.391 29.57 164.651 29.53C164.931 29.47 165.261 29.49 165.641 29.59C165.861 29.73 165.961 29.95 165.941 30.25C165.941 30.55 165.781 30.99 165.461 31.57C165.401 31.71 165.231 31.92 164.951 32.2C164.691 32.46 164.401 32.73 164.081 33.01C163.781 33.27 163.531 33.46 163.331 33.58C162.731 33.9 162.141 34.05 161.561 34.03C160.981 34.01 160.451 33.91 159.971 33.73ZM162.191 26.98C162.491 26.9 162.741 26.82 162.941 26.74C163.161 26.66 163.371 26.53 163.571 26.35C163.771 26.17 164.001 25.9 164.261 25.54C164.341 25.32 164.381 25.13 164.381 24.97C164.401 24.81 164.391 24.71 164.351 24.67C164.191 24.51 164.011 24.46 163.811 24.52C163.631 24.56 163.431 24.66 163.211 24.82C163.071 24.88 162.871 25.01 162.611 25.21C162.371 25.39 162.131 25.6 161.891 25.84C161.671 26.06 161.491 26.27 161.351 26.47C161.231 26.65 161.211 26.76 161.291 26.8C161.251 26.88 161.361 26.93 161.621 26.95C161.901 26.97 162.091 26.98 162.191 26.98ZM171.25 34.21C170.19 34.21 169.41 33.87 168.91 33.19C168.77 32.87 168.7 32.55 168.7 32.23C168.72 31.89 168.8 31.65 168.94 31.51C169.08 31.35 169.25 31.38 169.45 31.6C169.71 31.76 170.08 31.84 170.56 31.84C170.8 31.84 171.01 31.84 171.19 31.84C171.39 31.82 171.62 31.8 171.88 31.78C172.34 31.74 172.63 31.6 172.75 31.36C172.89 31.12 172.86 30.92 172.66 30.76H172.69C172.15 30.62 171.62 30.42 171.1 30.16C170.58 29.9 170.14 29.61 169.78 29.29C169.42 28.95 169.21 28.63 169.15 28.33C168.99 27.67 169.03 26.99 169.27 26.29C169.51 25.59 169.86 24.98 170.32 24.46C170.5 24.34 170.75 24.17 171.07 23.95C171.39 23.71 171.62 23.58 171.76 23.56V23.59C172.14 23.19 172.57 22.87 173.05 22.63C173.53 22.37 174.09 22.13 174.73 21.91L175.21 21.85C175.45 21.81 175.66 21.79 175.84 21.79C175.82 21.79 175.87 21.81 175.99 21.85C176.11 21.89 176.21 21.92 176.29 21.94C176.41 22 176.53 22.03 176.65 22.03C176.93 22.07 177.2 22.22 177.46 22.48C177.74 22.72 177.96 23.01 178.12 23.35C178.3 23.67 178.37 23.97 178.33 24.25C178.27 24.71 178.1 25.17 177.82 25.63C177.54 26.07 177.24 26.32 176.92 26.38C176.96 26.36 176.92 26.32 176.8 26.26C176.68 26.2 176.57 26.14 176.47 26.08L176.35 26.14C176.35 26.14 176.34 26.11 176.32 26.05C176.32 25.99 176.3 25.92 176.26 25.84C176.18 25.7 176.12 25.55 176.08 25.39C176.06 25.23 176.06 25.05 176.08 24.85C176.12 24.63 176.13 24.5 176.11 24.46C176.09 24.42 175.97 24.39 175.75 24.37C175.49 24.31 175.16 24.34 174.76 24.46C174.36 24.56 173.99 24.74 173.65 25C173.25 25.26 172.95 25.47 172.75 25.63C172.57 25.79 172.43 25.95 172.33 26.11C172.23 26.25 172.12 26.46 172 26.74C171.92 26.88 171.85 27.01 171.79 27.13C171.73 27.23 171.7 27.33 171.7 27.43C171.7 27.63 171.87 27.84 172.21 28.06C172.55 28.26 173.06 28.5 173.74 28.78C174.28 29 174.63 29.3 174.79 29.68C174.97 30.06 175.13 30.42 175.27 30.76C175.31 30.84 175.35 30.99 175.39 31.21C175.45 31.41 175.46 31.53 175.42 31.57C175.46 31.61 175.48 31.65 175.48 31.69V31.66C175.64 31.96 175.61 32.28 175.39 32.62C175.19 32.94 174.87 33.24 174.43 33.52C173.99 33.78 173.49 33.97 172.93 34.09H172.96C172.66 34.13 172.36 34.16 172.06 34.18C171.78 34.2 171.51 34.21 171.25 34.21Z" fill="#3F57D6"/>
</svg>
